<?xml version="1.0" standalone="no"?>
<!DOCTYPE svg PUBLIC "-//W3C//DTD SVG 20010904//EN"
 "http://www.w3.org/TR/2001/REC-SVG-20010904/DTD/svg10.dtd">
<svg version="1.0" xmlns="http://www.w3.org/2000/svg"
 width="300.000000pt" height="300.000000pt" viewBox="0 0 300.000000 300.000000"
 preserveAspectRatio="xMidYMid meet">
<metadata>
Created by potrace 1.11, written by Peter Selinger 2001-2013
</metadata>
<g transform="translate(0.000000,300.000000) scale(0.100000,-0.100000)"
fill="#000000" stroke="none">
<path d="M1334 2815 c-50 -7 -115 -18 -145 -25 -114 -26 -289 -99 -289 -120 0
-6 -7 -10 -15 -10 -20 0 -20 -39 0 -76 18 -35 20 -67 3 -62 -7 3 -14 21 -16
41 -2 20 -8 37 -13 37 -6 0 -7 4 -4 10 3 5 2 17 -3 25 -7 13 -16 10 -58 -21
-242 -180 -433 -481 -484 -763 -8 -47 -8 -73 3 -120 8 -34 10 -61 6 -61 -5 0
-9 5 -9 10 0 6 -5 10 -11 10 -9 0 -10 -21 -5 -71 6 -65 5 -71 -14 -76 -19 -5
-19 -15 -19 -459 -1 -396 1 -453 14 -448 8 4 15 15 15 25 0 10 5 19 10 19 6 0
10 13 10 29 0 17 4 33 10 36 6 4 10 -5 10 -20 0 -25 3 -27 28 -21 31 8 52 31
52 58 0 10 7 18 15 18 10 0 15 -11 17 -35 0 -19 1 -40 2 -46 2 -18 -33 -37
-42 -23 -12 20 -76 -7 -80 -34 -3 -22 -11 -26 -44 -23 -16 2 -18 -9 -18 -112
0 -100 3 -118 20 -138 19 -23 21 -23 34 -6 17 22 26 22 26 -3 0 -14 7 -20 23
-20 13 0 28 -5 34 -11 8 -8 20 -7 44 5 18 9 33 16 33 16 9 0 -4 -54 -14 -60
-11 -7 -11 -11 -1 -24 7 -9 17 -13 22 -10 5 3 9 -2 9 -10 0 -32 137 -96 206
-96 21 0 24 5 24 36 0 21 -4 33 -10 29 -5 -3 -10 -1 -10 4 0 6 5 11 11 11 7 0
10 62 7 203 -3 186 -5 206 -27 251 -20 44 -22 60 -19 172 3 116 2 124 -16 124
-15 0 -16 3 -6 15 6 8 9 19 6 24 -4 5 -2 12 3 15 5 3 12 22 16 42 4 24 13 38
26 41 17 5 19 15 19 77 0 67 -2 72 -27 84 -52 24 -86 14 -96 -29 -5 -20 -2
-28 13 -35 14 -7 17 -13 10 -24 -8 -13 -11 -12 -24 5 -14 18 -15 18 -16 3 0
-22 -20 -24 -20 -3 0 8 -7 15 -15 15 -8 0 -15 7 -15 15 0 19 -9 19 -34 0 -18
-13 -18 -16 -2 -39 17 -26 22 -76 8 -76 -5 0 -17 6 -28 14 -18 14 -18 15 -1
21 9 4 17 12 17 17 0 6 -8 7 -17 3 -10 -3 -22 -7 -28 -8 -6 -1 -8 35 -7 92 2
52 -1 97 -6 100 -5 3 -12 21 -15 39 -5 24 -3 34 8 38 9 4 15 19 15 39 0 19 8
39 20 50 11 10 20 23 20 29 0 6 -5 4 -11 -4 -9 -12 -10 -10 -6 9 3 13 2 33 -2
45 -8 21 2 189 14 238 6 23 4 24 -24 20 -17 -2 -34 -8 -37 -13 -3 -5 -9 -9
-15 -9 -12 0 -11 41 1 60 9 13 11 13 20 0 8 -12 10 -11 10 6 0 31 10 35 32 14
12 -11 17 -24 12 -32 -4 -7 -3 -10 2 -5 5 5 23 49 40 98 29 84 30 90 13 99
-24 13 -29 13 -29 -3 0 -8 -7 -14 -15 -14 -8 0 -15 3 -15 7 0 13 38 41 52 39
29 -6 57 13 63 42 4 17 9 28 12 25 3 -3 24 20 45 52 108 156 286 294 474 368
137 54 221 69 384 69 116 0 147 3 157 15 6 8 9 18 7 22 -2 4 0 9 5 12 5 3 12
-9 15 -27 6 -32 9 -34 103 -60 l96 -27 23 21 c13 12 30 19 38 16 19 -7 66 14
66 31 0 6 4 12 9 12 4 0 9 -25 10 -55 1 -45 -3 -56 -19 -65 -14 -7 -20 -7 -20
0 0 5 -4 10 -10 10 -23 0 -7 -17 47 -50 31 -19 92 -63 135 -97 43 -35 78 -58
78 -53 0 5 -4 12 -10 15 -16 10 -12 25 5 19 8 -4 15 -17 15 -31 0 -16 23 -54
61 -101 34 -42 63 -82 66 -89 3 -8 13 -11 24 -8 11 4 19 2 19 -3 0 -6 -5 -12
-11 -14 -8 -3 -6 -14 6 -37 13 -26 19 -31 26 -20 6 9 8 3 8 -21 -1 -19 6 -52
15 -73 28 -65 55 -196 67 -326 6 -74 16 -132 24 -141 15 -18 26 -320 11 -320
-5 0 -29 19 -53 41 -43 39 -48 41 -90 35 -25 -3 -55 -6 -66 -6 -15 0 -18 -5
-15 -24 3 -15 0 -27 -8 -30 -10 -4 -14 4 -14 28 0 36 -13 46 -56 46 -27 0 -28
-2 -15 -47 7 -23 6 -33 -2 -36 -7 -2 11 -29 41 -61 l52 -58 2 -101 c0 -56 1
-109 2 -117 1 -8 15 -18 31 -21 24 -5 26 -7 13 -13 -9 -4 -22 -5 -27 -1 -6 3
-24 -1 -41 -10 -27 -14 -30 -20 -30 -61 0 -51 -14 -84 -35 -84 -8 0 -15 4 -15
8 0 4 -9 8 -20 8 -11 0 -20 -4 -20 -8 0 -4 8 -8 18 -8 37 0 41 -12 26 -70 -14
-53 -10 -115 7 -125 4 -3 4 -17 -1 -31 -6 -14 -10 -78 -10 -143 l0 -118 92 -7
c86 -6 96 -4 146 20 29 14 51 31 50 36 -2 6 10 24 27 42 16 17 35 40 40 50 8
14 23 19 62 20 65 2 96 32 88 84 -4 18 -2 32 4 32 14 0 12 263 -2 272 -9 6 -9
13 1 28 9 15 12 109 12 382 0 329 -2 365 -18 384 -9 12 -23 24 -31 26 -11 3
-15 27 -17 104 -3 100 -32 274 -55 329 -7 17 -13 32 -13 35 -5 25 -40 100 -47
100 -5 0 -9 7 -9 16 0 21 -68 134 -81 134 -5 0 -9 6 -9 13 0 7 -13 29 -30 47
-16 18 -30 37 -30 40 0 12 -156 164 -212 208 -73 56 -168 112 -190 112 -11 0
-28 8 -39 19 -36 33 -215 80 -366 96 -54 6 -63 5 -63 -9 0 -9 -4 -16 -8 -16
-4 0 -8 -10 -9 -21 -2 -25 -10 -35 -20 -26 -4 4 1 23 10 42 l17 35 -58 -1
c-31 -1 -98 -7 -148 -14z m91 -65 c3 -5 1 -10 -4 -10 -6 0 -11 5 -11 10 0 6 2
10 4 10 3 0 8 -4 11 -10z m355 0 c0 -5 -2 -10 -4 -10 -3 0 -8 5 -11 10 -3 6
-1 10 4 10 6 0 11 -4 11 -10z m-520 -20 c0 -5 -4 -10 -10 -10 -5 0 -10 -7 -10
-16 0 -14 -2 -15 -17 -3 -15 13 -15 14 0 17 10 2 17 8 17 13 0 5 5 9 10 9 6 0
10 -4 10 -10z m516 -35 c4 -8 3 -22 0 -31 -5 -14 -8 -14 -21 0 -8 8 -15 22
-15 30 0 20 29 21 36 1z m-786 -15 c0 -5 -4 -10 -10 -10 -5 0 -10 5 -10 10 0
6 5 10 10 10 6 0 10 -4 10 -10z m195 -20 c-19 -21 -35 -26 -35 -12 0 5 10 14
23 20 31 15 32 14 12 -8z m-247 -14 c-7 -8 -15 -12 -17 -11 -5 6 10 25 20 25
5 0 4 -6 -3 -14z m1132 -12 c0 -14 -3 -14 -15 -4 -8 7 -15 14 -15 16 0 2 7 4
15 4 8 0 15 -7 15 -16z m39 -66 c0 -7 -4 -22 -9 -33 -7 -19 -8 -19 -18 5 -5
14 -8 28 -5 33 7 12 33 8 32 -5z m-49 -2 c0 -3 -4 -8 -10 -11 -5 -3 -10 -1
-10 4 0 6 5 11 10 11 6 0 10 -2 10 -4z m308 -152 c-4 -3 -2 -19 2 -35 10 -35
-6 -51 -19 -18 -9 27 -3 59 12 59 6 0 8 -3 5 -6z m-1668 -28 c0 -14 -4 -28
-10 -31 -5 -3 -10 0 -10 9 0 8 -3 21 -6 30 -4 11 -1 16 10 16 10 0 16 -9 16
-24z m1770 -117 c0 -4 -6 -9 -13 -12 -10 -4 -13 2 -9 20 3 18 7 21 13 11 5 -7
9 -16 9 -19z m-1833 -35 c-3 -3 -12 -4 -19 -1 -8 3 -5 6 6 6 11 1 17 -2 13 -5z
m-64 -58 c-11 -14 -23 -22 -27 -19 -3 4 1 14 10 24 10 11 14 25 10 36 -7 17
-6 17 10 1 16 -15 15 -18 -3 -42z m1897 -50 c0 -3 -4 -8 -10 -11 -5 -3 -10 -1
-10 4 0 6 5 11 10 11 6 0 10 -2 10 -4z m108 -52 c5 3 12 -5 14 -19 3 -14 2
-25 -2 -25 -12 0 -60 48 -60 61 0 8 7 5 19 -5 11 -10 24 -15 29 -12z m-2098
-95 c0 -5 -7 -9 -15 -9 -15 0 -20 12 -9 23 8 8 24 -1 24 -14z m-80 -59 c0 -5
-7 -10 -15 -10 -7 0 -19 -8 -24 -17 -6 -11 -11 -13 -11 -5 0 17 22 41 38 42 6
0 12 -4 12 -10z m2225 -40 c3 -5 1 -10 -4 -10 -6 0 -11 5 -11 10 0 6 2 10 4
10 3 0 8 -4 11 -10z m-2264 -75 c-9 -25 -20 -45 -25 -45 -11 0 1 59 15 77 22
26 26 12 10 -32z m79 10 c0 -8 -4 -15 -10 -15 -5 0 -7 7 -4 15 4 8 8 15 10 15
2 0 4 -7 4 -15z m2124 -14 c3 -5 -1 -12 -10 -15 -22 -9 -24 -8 -24 9 0 16 25
21 34 6z m-2124 -185 c0 -2 3 -12 6 -21 6 -15 4 -15 -15 -4 -25 16 -27 29 -6
29 8 0 15 -2 15 -4z m2184 -165 c-6 -6 -24 19 -24 34 1 6 7 1 15 -9 8 -11 12
-22 9 -25z m-2274 -90 c0 -6 -4 -13 -10 -16 -5 -3 -10 1 -10 9 0 9 5 16 10 16
6 0 10 -4 10 -9z m2260 -172 c0 -6 -4 -7 -10 -4 -5 3 -10 11 -10 16 0 6 5 7
10 4 6 -3 10 -11 10 -16z m-2019 -82 c-14 -14 -14 -47 -1 -47 6 0 10 7 10 15
0 8 5 15 10 15 11 0 12 -22 1 -60 -7 -24 -7 -24 -18 -5 -12 20 -12 20 -26 1
-9 -12 -16 -15 -21 -8 -3 6 -2 13 4 17 5 3 10 22 10 41 0 19 4 34 9 34 5 0 12
15 16 33 l8 32 4 -29 c3 -16 0 -33 -6 -39z m2119 43 c0 -5 -2 -10 -4 -10 -3 0
-8 5 -11 10 -3 6 -1 10 4 10 6 0 11 -4 11 -10z m-2063 -16 c-3 -3 -12 -4 -19
-1 -8 3 -5 6 6 6 11 1 17 -2 13 -5z m1788 -3 c-6 -5 -28 -12 -50 -15 l-40 -6
30 15 c34 16 74 20 60 6z m-2105 -43 c0 -5 -9 -8 -20 -8 -22 0 -28 26 -7 33
12 4 27 -10 27 -25z m2120 9 c0 -9 -13 -11 -42 -8 -34 3 -39 5 -23 12 31 12
65 10 65 -4z m177 -39 c-3 -7 -5 -2 -5 12 0 14 2 19 5 13 2 -7 2 -19 0 -25z
m-2107 12 c0 -5 -9 -10 -20 -10 -11 0 -20 5 -20 10 0 6 9 10 20 10 11 0 20 -4
20 -10z m1899 -37 c-3 -21 2 -33 12 -28 6 4 8 14 5 22 -4 9 -1 13 6 11 7 -3
14 -13 16 -24 3 -20 -35 -44 -70 -44 -26 0 -22 20 5 21 17 1 14 3 -11 10 -28
8 -32 12 -22 24 13 15 61 21 59 8z m-1779 -98 c0 -13 -6 -16 -22 -11 -13 3
-29 6 -35 6 -7 0 -13 7 -13 15 0 8 9 15 20 15 11 0 20 5 20 11 0 6 7 4 15 -5
8 -8 15 -22 15 -31z m-130 26 c0 -6 -4 -13 -10 -16 -5 -3 -10 1 -10 9 0 9 5
16 10 16 6 0 10 -4 10 -9z m1892 -30 c-11 -7 -11 -9 2 -14 10 -4 16 -1 16 8 0
17 9 19 30 5 11 -7 9 -11 -13 -19 -41 -16 -87 -14 -87 3 0 16 15 24 45 25 15
1 16 -2 7 -8z m291 -26 c-3 -9 -8 -14 -10 -11 -3 3 -2 9 2 15 9 16 15 13 8 -4z
m-22 -37 c11 -21 11 -22 -4 -9 -10 7 -17 17 -17 22 0 15 9 10 21 -13z m-2285
-94 c-8 -21 -11 -17 -20 21 -7 28 -6 29 10 13 10 -10 14 -23 10 -34z m2304 -9
c-7 -9 -15 -13 -17 -11 -7 7 7 26 19 26 6 0 6 -6 -2 -15z m-350 -123 c-26 -4
-50 4 -50 16 0 5 16 4 36 -2 28 -9 31 -12 14 -14z m-2030 -138 c0 -8 -4 -12
-10 -9 -5 3 -10 10 -10 16 0 5 5 9 10 9 6 0 10 -7 10 -16z m360 6 c0 -5 -2
-10 -4 -10 -3 0 -8 5 -11 10 -3 6 -1 10 4 10 6 0 11 -4 11 -10z m-195 -86
c-15 -28 -16 -28 -11 -4 3 14 6 36 7 50 0 24 1 24 11 4 7 -16 6 -29 -7 -50z
m1865 2 c37 -8 49 -14 37 -19 -10 -4 -39 2 -65 13 -55 22 -48 24 28 6z m-1986
-2 c13 -5 13 -8 1 -20 -19 -19 -25 -18 -25 6 0 22 1 23 24 14z m186 -32 c-6
-2 -10 -10 -10 -18 0 -8 -7 -14 -15 -14 -20 0 -19 24 1 45 14 13 18 14 25 3 5
-7 4 -14 -1 -16z m1935 -32 c3 -6 -1 -7 -9 -4 -18 7 -21 14 -7 14 6 0 13 -4
16 -10z m-1775 -75 c0 -8 -4 -15 -10 -15 -5 0 -7 7 -4 15 4 8 8 15 10 15 2 0
4 -7 4 -15z m1687 -17 c-3 -7 -5 -2 -5 12 0 14 2 19 5 13 2 -7 2 -19 0 -25z
m-1708 -31 c-25 -25 -42 -26 -33 -2 5 12 21 20 48 24 5 0 -2 -9 -15 -22z m-14
-46 c3 -5 1 -12 -5 -16 -5 -3 -10 1 -10 9 0 18 6 21 15 7z"/>
<path d="M1930 2594 c0 -8 -4 -12 -10 -9 -5 3 -10 2 -10 -3 0 -5 11 -14 25
-20 20 -9 25 -9 25 2 0 8 5 16 11 18 6 2 0 9 -15 16 -22 10 -26 9 -26 -4z"/>
<path d="M696 1039 c-10 -17 -16 -33 -13 -36 3 -3 13 9 22 27 21 41 14 48 -9
9z"/>
<path d="M2794 925 c-4 -15 -2 -31 5 -38 8 -8 11 -5 11 13 0 42 17 8 22 -45
l5 -50 -14 34 c-26 62 -38 23 -41 -139 l-3 -150 25 0 c19 0 26 5 26 20 0 11 7
20 16 20 8 0 12 -4 9 -10 -14 -23 14 -8 30 17 22 33 22 73 1 85 -23 13 -21 37
4 31 19 -5 20 0 20 73 0 54 -3 74 -10 64 -5 -8 -7 -23 -4 -32 4 -12 -2 -19
-20 -24 -25 -6 -36 -24 -15 -24 14 0 7 -42 -8 -48 -18 -5 -17 77 0 84 8 3 14
10 14 17 0 7 3 26 7 43 8 35 -14 68 -51 79 -18 5 -24 1 -29 -20z"/>
<path d="M162 907 c-45 -26 -56 -56 -60 -162 -5 -146 20 -201 100 -221 l27 -6
0 201 c0 201 0 201 -22 201 -12 -1 -32 -6 -45 -13z m15 -284 c4 -10 11 -21 17
-25 7 -5 4 -12 -9 -22 -24 -18 -25 -17 -31 28 -4 37 11 50 23 19z"/>
</g>
</svg>
