<svg xmlns="http://www.w3.org/2000/svg" viewBox="0 0 500 500"><defs><style>.a{fill:#202020;}</style></defs><path class="a" d="M371.87,432.3v2A1.21,1.21,0,0,0,371.87,432.3Z"/><path class="a" d="M117.25,281.38a5.46,5.46,0,0,0-1.29-.13,2,2,0,0,1,0,.68C116.07,281.65,116.79,281.57,117.25,281.38Z"/><path class="a" d="M404,153l.39.84a1.69,1.69,0,0,1,0-.84Z"/><path class="a" d="M78.27,455.84a14.21,14.21,0,0,1,2-2.79c-.64.44-2.17.32-2.6.61,0-.57-1.61-2.38-.12-3.1l.5,1.69c.43-.3,1.5-.73,1.48-1.31-.9-.83-1.12-.68-2.87-.93l.43-.29-2-.67c-.41.84-1.27,1.14-1.89,1.58v0A68.12,68.12,0,0,0,78.27,455.84Z"/><path class="a" d="M369.63,105.43c.43.41.86.82,1.28,1.24l.67.42C372.53,106.2,370.82,105.3,369.63,105.43Z"/><path class="a" d="M330.07,76.32l.28.16c0-.07,0-.15,0-.22A1.59,1.59,0,0,0,330.07,76.32Z"/><path class="a" d="M278.22,57.67s0,0,0,0h0Z"/><path class="a" d="M277.3,55.9H278c-.06-.21-.11-.43-.17-.64A.55.55,0,0,0,277.3,55.9Z"/><path class="a" d="M277.57,57.17a.87.87,0,0,0,.68.19,6,6,0,0,0-.19-1.18A.71.71,0,0,0,277.57,57.17Z"/><path class="a" d="M326.55,71.29a.68.68,0,0,0,.32-.51A.85.85,0,0,0,326.55,71.29Z"/><path class="a" d="M98.84,138.07a1.17,1.17,0,0,0-.27.19,1,1,0,0,0,.05.27,2.08,2.08,0,0,1,.83.73c.36-.6.72-1.2,1.09-1.8l0-.05A2.24,2.24,0,0,0,98.84,138.07Z"/><path class="a" d="M100.5,137.41a.12.12,0,0,1,0,.05l.27-.45-.54.16Z"/><path class="a" d="M90.49,288.91l-.35.18A.59.59,0,0,0,90.49,288.91Z"/><path class="a" d="M341.79,59.53l.56-.18C342,59.34,341.86,59.42,341.79,59.53Z"/><path class="a" d="M408.14,124l.5,0v0A4,4,0,0,0,408.14,124Z"/><path class="a" d="M38.08,410.06v-2.38c-.65-.65-1.29-1.23-.66-2.33A16.24,16.24,0,0,0,33.79,408l.25.18a1.55,1.55,0,0,0-.44,0c-.23.23-.44.45-.65.68a.64.64,0,0,1-.18.19l.18-.19c.16-.26.2-.6.65-.68l.19-.19-2.65-1.88c1.5-.73.39-1.42,1.65-2.28-.36,1.7,3.07.79,2.47,1.79,1.27-.87,1.7-.87,2.3-2.15a1.17,1.17,0,0,0,.52.29V391.38H38l.11,0v-13.6l-2.17-.28c.65-.16,1.06-.73.4-.86a1.76,1.76,0,0,0-1.07.44l1.84-3a3.75,3.75,0,0,1,1-.14V343.56a19.82,19.82,0,0,0-20.85,18.07,214.91,214.91,0,0,0,.05,30.87l0,.26.29.08-.28,0C18.35,403.39,28.48,411.42,38.08,410.06Zm-1.17-29.25-.62,1-.68-.7A1.64,1.64,0,0,1,36.91,380.81Zm-2.85-11.94c.43,0,1.1.12,1.5-.45-.4.57-.37,1.42-1.69,1.15ZM35,383c.48.84-.62.71-1.27.59C32.9,383.84,34.14,382.41,35,383Zm-3.69-11.37-.17,1.28-.22-.15ZM28,404.24A5.06,5.06,0,0,0,25.16,403l1.27-.87c-4.6-.91,2.32-1.87-2.07-2.92,2.2.53.15-1.84,1.86-2.43-2.21-1.1-1.87-3.64-1.92-5.05,2.37-.18,1.87-2.15,4.28-1.2.12,2.82,2.13,4.34,1.59,7,.38-1.14,2.76-1.6,2.49-3.14l.8,1.21a4.43,4.43,0,0,1,.55-.11l-.43.29-.12-.18c-2.59.69,1.69,3.19.71,4.41-1.56-1-2.18,0-3,.32l.28,1.84C28.8,401.68,29.3,403.37,28,404.24Z"/><path class="a" d="M340,75.87l.09,0-.18-.19A.92.92,0,0,0,340,75.87Z"/><polygon class="a" points="406.23 328.58 406.24 328.58 406.23 328.58 406.23 328.58"/><path class="a" d="M392.94,98.28a.44.44,0,0,0-.17.26A2.33,2.33,0,0,0,392.94,98.28Z"/><path class="a" d="M393,98.27h0l0,0Z"/><path class="a" d="M48.61,213.31c0,.38-.06.76-.08,1.14A2,2,0,0,0,48.61,213.31Z"/><path class="a" d="M49,209.42h-.1s0,.09,0,.13Z"/><path class="a" d="M38.08,407.3v-.66A.47.47,0,0,0,38.08,407.3Z"/><path class="a" d="M42.65,332.34v.83C43.08,333,43.27,332.78,42.65,332.34Z"/><path class="a" d="M386.06,298.51c.19,0,.3,0,.33-.09l0-.06A1.15,1.15,0,0,0,386.06,298.51Z"/><path class="a" d="M143.71,55.94a1.13,1.13,0,0,0,.16-.57l-1,.6A2.73,2.73,0,0,1,143.71,55.94Z"/><path class="a" d="M476.54,371.1h0v0Z"/><path class="a" d="M472.65,402.37a1.24,1.24,0,0,0,.42,1.16c.31-.18.61-.37.91-.58Z"/><path class="a" d="M119.15,283.67l-.36-.12c.52,2.25-.76,3.12-2,4.83a5.49,5.49,0,0,0,2.08-.51l.53-.4A19.91,19.91,0,0,0,119.15,283.67Z"/><path class="a" d="M482.46,382.85a1.35,1.35,0,0,0,.63,1.23c0-.4,0-.79,0-1.18A.72.72,0,0,0,482.46,382.85Z"/><path class="a" d="M462,340.09l.12,0a1.69,1.69,0,0,0,.28-.67l-.4,0Z"/><path class="a" d="M465.93,340.57l-1.54,1.85c-.22-.15-.54-.63-1-.45l.2,1.47,1.23-.21c-1.66.7-.36,2.13-1.6,2.33l1.57,1.09c-3.93.47,1.13,2.91-.28,4.58,2.72.56.93-2.8,2.95-3.53-.37,0-1-.12-1.09,0-1.05-.45-.05-2.94.16-5.72.17.65,1.23,1.92,1.21,3.23l1.15-.53c1.23,1.91,1,4.7,1.54,6.64.32-.58.73-.43,1.09-.28.23-.09.49-.19.79-.28-.12.58-.43.43-.79.28-2.58,1.08-.53,2.53-3.15,4.26,1.31.12,3,2.51,2,4l1.32.12c-.2,1,.38,1.14-.45,1.65l.81.41c.14-.22.27-.23.41.2l-.41-.2c-.29.43-.62,1.68-1.09,1.78.51.28.67,1.35,1.44,1.2s-.27-1.6,1.13-1.67c.06-.25.12-.49.15-.68l.56.3c.22,1,1.19.43,1.47.58-.38.1-.21.55.06,1.1.38-.42.13-1.22.31-1.7l.42.31c1.84-.05.5-1.32.91-2.14-1.11,0-1.62.21-.93,1-1,1.5-2.54-1.88-2.51.4l-.23-1.3c1.16.29,1.76-1.52,3.33-.91-1-1.28,1.2-.53.23-1.8-1.5.86-.23-1.31-1.85-1.09.05-2,1.66-4.13,2.93-6.14-1.63-2.37-1.14-3.92-1.29-5.56a19.93,19.93,0,0,0-12.44-5.78Z"/><path class="a" d="M149,83.89l.45-.21,0-.09Z"/><path class="a" d="M462,354c1.39-1.22.86-3,0-4.71Z"/><path class="a" d="M475,368.18l-.22,1.63h0l.06-.06a7,7,0,0,0,1-.1c1.33-.62-1.07-2.85.36-3.7-.57-.33-1.51-1-1.81-.34l.2.32c-1.17.15-1.44-.56-1.41-1.45h-.52c.64.48-.28,1.47,1.24,1.76l-1.41.36C473.92,366.74,473.12,369,475,368.18Z"/><path class="a" d="M462,357.87v21.77a11.8,11.8,0,0,1,.37,2.09l-.37-.88v2.21l0,0,0,.07v6.38c.55-.18,1.73-.48.65-1.48,1.81.56,1.3,2.26.75,2-.26-.76-.82-.36-1.4-.41v16.28a16.2,16.2,0,0,0,6.51-.41l-.21-.22c-.63-.14-.09-.5-.09-.5a2.28,2.28,0,0,1,.69.61l.95-.31c-.26-.94-.38-1.79.37-2.06-.06-1.17-1.06-1.29-1.95-1.57.89.28,1.63-1.09.65-1.87l-.62-.13,2.55-2.14c-.18.35-.64.53-.2,1,1.89.41,1.73-1.25,1-1.88,1.69,1.41.34,1.31.41,2.48a2.53,2.53,0,0,0,2.09-1.28l1.24,1.61c.41,1.72-2.22,2.09-1.25,3.61a20.61,20.61,0,0,0,8.37-12.53l-.85-.42a1.5,1.5,0,0,0,.95-.08l.12-.63c-.63-.13-.81.2-1.26-.27.42-1.53-.78-3.3-.53-4.49.18-.33-2.89-.51-3.91-2,0,0,.17-1.67-1.11-1.94.31-1.35.76-3.71,2.31-3.29l.22,1c3.46.82-.25-1.66.92-1.88l1.46.58-.47,1.7a14.43,14.43,0,0,0,2.86.83c.16-7.09,0-14.2-.3-21.28a18.72,18.72,0,0,0-.81-4.63c-1,2-1,4.22-2,6.82l1.61-.22a7.17,7.17,0,0,0,.13,3.76c-.18-1-1.56.53-1.77.38l.64.48c-2.28,1.69-2.38-.92-3.4.58-.88.8-.86,2.37-.81,4.06a.79.79,0,0,0,.26-.58c1.05,1.44,1,2.28-.15,3.17l-.11-.07a9.25,9.25,0,0,1-.13.94c.17-.17.83.95,1.56.93-.35,2.13-2.53,2.51-2.92,4.31-1.88-.61.25-1.3.39-1.8-.17.17-2,.54-1.88,1.51-1.36-.78-3.26-1.38-1.73-2.88-2.12-2.87,1.26-4.75-.35-7.47l-1.37-.45c2.2-.06-1-2.41.88-3.28l-.93-.13a27.18,27.18,0,0,1,.22-4.9c-.73,0-1.31-.12-1.41.37-1.41.37-1.83-3-1.25-2.89l.57.14c-.94-1.26-1.09-3.87-2.89-3.48-2.48.89.25,3.24-1.59,4.11H464l-1,1.49C461.91,359.29,462.68,358.13,462,357.87Zm17.79,27.38.1-.1a.19.19,0,0,1-.1.1l-.6.61-.2-1C479.21,385,479.57,385.35,479.78,385.25Zm-9.12-6.39c.82.95,1.41-.69,2,.11l-.18,2c-1.78.69-.63-.8-1.57-.94a.8.8,0,0,0-.37.48,1.49,1.49,0,0,1,0,.62c0,.35.09.61-.18.54a2.84,2.84,0,0,0,.18-.54,1.64,1.64,0,0,1,0-.62C470.4,379.63,469.48,379.49,470.66,378.86Zm-2.6,17.08.71,1.3h-.36l-.8-1.13Zm-2-32.71c.27.47-1.21,2.46,1,2.4l-1.18,1.66C464.39,366.2,465.57,364.54,466.07,363.23Zm-2.42,5.26a8.5,8.5,0,0,0,.19-1.3c1.76,1.88-1.35,2.46-.67,4.2l0,0c.69-.35,1-1,1.51-1.5.4.31.26.81.49,1.28.08,1-1,1-1.55,1.18l-.45-1h0s0,0,0,0l-.9-1.89C462.38,368.68,463,367.7,463.65,368.49Z"/><path class="a" d="M390.65,351.73c-.29.3.19.83.07,1l-.84-1.1c-.42.13-.59.31-.63.53,1,.59,15.65-1.39,15.29-3.76C404.19,349.12,390.79,352.27,390.65,351.73Z"/><path class="a" d="M473.25,364.28c0-.17,0-.35.07-.52C473.12,363.88,473,364,473.25,364.28Z"/><path class="a" d="M476.47,365.85l-.1,0a.22.22,0,0,1,0,.08Z"/><path class="a" d="M328.4,74l.69-.38c-.16-.56-1.48-1.57-1.64-1.85a1.59,1.59,0,0,0-.73.33c.14.29.34.57.48.84a.7.7,0,0,1,.09.17c.21.49.16.9-.9,1.14a4.7,4.7,0,0,1-.22-.63H325q2.37,1.23,4.73,2.54l.11-.8a1.82,1.82,0,0,0-.55,0l1.21-2.56-1.44.78C329.17,73.85,329,74,328.4,74Z"/><path class="a" d="M75.19,299.2l-.78.64c.08.4.83.9,1.61,1.61,1.35-1.46,1.43-2.29,1-3.74l-1.06.83C76.3,298.84,76.35,299.1,75.19,299.2Z"/><path class="a" d="M72.66,297.65v-.95A1.62,1.62,0,0,0,72.66,297.65Z"/><path class="a" d="M227.2,29.3c-.71.29-.91-.07-1.18-.41l-1.38.15c-.13.94.35,2.31-.13,3a4,4,0,0,0-.32-3l-1.87.22.11.1c.32,2.4-3.85,1.47-4,3.59l2.61,0,.06,1.69c-.09-2.25-2.62-.24-3.56-2.48,2.19-.27,1.08-1.4.8-2.35q-5.1.7-10.07,1.62a.94.94,0,0,0,.78.44l.84-.57c1.53,1.87-1,1.22-1.7,2.22l-.14.77a1.08,1.08,0,0,1,.14-.77l0-.22c-2.59.61-.21.15-2.62-.24.87-.36,1.44-.9,1.38-1.39l-1,.2a1.7,1.7,0,0,1-.8.64c0-.19,0-.34,0-.47a195.72,195.72,0,0,0-42.3,13.4,3.86,3.86,0,0,1-1,1.6c1.09.12.4-.85,1.27-.87l.51,1.69c.55-.13,1.12,0,1.39-.31l0,0a.41.41,0,0,0,.07-.11.26.26,0,0,1-.07.11l0,0c-.33.33-1.14.53-.93,1.15.18-.12.36-.05.54-.11l.1-.05a.24.24,0,0,1-.1.05c-2.13,1,1.5,3.32-1.27,3.5.44.56,1.32.55,1.3,0,.92,1.39.05,1.41-.77,2.55.6-1.28-1.12-.69-2-1-2-1.8,2-3.7.41-6.07-.43,0-.86.29-1.08-.12a1.69,1.69,0,0,0,.64-1.57q-6.51,3-12.7,6.42l.11.12c3.34,2.06-3.16,2.45-2,4l-2-1c.36,3.81-4.15,5.15-4.43,9.1-2.66-1.64,2.65-4.69-1.08-5.34.86-.58,1.19-1.67,1.82-2.44C111.35,75.58,87.26,103,69.13,138c.2-.29.5-.43,1.24-.2-2.37.74-.77,2.55-1.4,3.27-1.08.16.84-.58-.47-.85a3.61,3.61,0,0,0-.59.15l-.76,1.54a3.11,3.11,0,0,0,1.91,1.69c-.87,0-2.44-1.51-2.6.05a3.41,3.41,0,0,0,.05-.42q-2.67,5.53-4.93,11.19c.87-.35,1.44-.86,1.08-1.51l1.11.4c-.33.86-1.21,1.13-2.26,1.28a184.09,184.09,0,0,0-10.66,38.72H51l-.12,0q-.8,4.86-1.35,9.8a3.55,3.55,0,0,1,1.66.44,13.21,13.21,0,0,0,.36,3.23,1.91,1.91,0,0,1,1.05.16c-.21.25-.4.55-.63.81a3,3,0,0,0,.73.86c-1.75-.25-.14,2.12-3,1.46.31,2.39,2.15-.6,3.72.92l-.55,2.41c.21-.14,1.71-.59.65-.15-1.27.87.93,1.68.1,2.54l-2.4-.11c1.13,1.26,4.22,2.34,3.2,4.19-1.5.44-.34,2.54-2.29,2.43,2.09-2-2.78-4.19-.45-6.06-1.3.31-1,1-2.56,1.17L48.4,217c0,.53,0,1.08-.07,1.62.54-.34,1.14-.82,1.66-.08a3.33,3.33,0,0,1-1.68.64c-.08,2.16-.13,4.32-.14,6.5-.06,8.78,6.59,14.57-2.42,15.61-.84.1-1.67.33-2.73.54-.09.64-.21,1.26-.31,1.86h0a1.71,1.71,0,0,1,1.11.4l-1.24.37a9.34,9.34,0,0,0-.1,1.29q0,23.15.08,46.31l.3.13-.3.21c0,2.44,0,4.89,0,7.34l.55-.19-.55.37v.84c3.22,1.71-1.86,1.9,2.9,3.55-.55,1.51-1.66,1.2-2.89,1.06v1.73c.29.05.57.12.79.14l.47-.09c0,.11-.23.12-.47.09a2.69,2.69,0,0,0-.79.27c0,.32,0,.64,0,.95a1.6,1.6,0,0,1,0,1.25l0,0v2.71h.27a2.65,2.65,0,0,1,1.4-.59c.23.13.68.68,1.1.4l-.82,1.14c1.08-.16.48,1.13,1.52.12.25.7-1.46,1.3-2.3,2.15a4,4,0,0,1-.93-1.08l-.23-.15v1.21c.29.3.26.74,1.35.18.24.92.51,2.8-1.35,3.22v.39c.44.32.82.6,1.29.49-3.21,1.32,1,3.09-.29,3.67l-1,.31v.84h.17a.68.68,0,0,1-.17.17q0,3.17,0,6.33a4.39,4.39,0,0,1,.39-.29l-.38.53v.35c.49.21,1.62.21,1.93.57,0-1.06,2.3-1.15,3.65-1.81,1.71-.6-.94-2,.58-2.13l1.13,1,.55-2.13c1.37,1.39-.73,3.4-.46,4.94l-1.34-1.1L45.93,333h.88l-1.91,1.29-.68-1c0,.57-1.7,1.17-.38,1.71a6.23,6.23,0,0,1-1.19.1V336c0,18.63,0,37.27,0,55.91l2.09.09c-.53-2.24,3.24-.18,3.17-2.16l-1.4.1a4.79,4.79,0,0,1-1,.07l1-.07c2.3-.45,1.28-2.83,2-2.94h-.32c-2.08-3.21,3.15-2.74,3.27-5.41-.67-.42,1.61-3.14-1.64-3.22,2.14-.6,1.83-3,1.55-4.55l1.12.7c1-.16.28-1.37-.36-1.65a.9.9,0,0,1-.35.1l.21-.15.14.05c1-.45.17-2.19,1.72-2.47-.61,1.28,1.81,1.66.53,2.53.88.27,3.06.23,2.6-.33.23.43,2.43.95,2.91,2.08a3.59,3.59,0,0,1-1.49.78l-.22.09c-.27.06-.1,0,.22-.09,1.25-.54-.88-.94-.3-1.89-1.26,1.16-2.8.47-4,1.91,1.35,1.1,1-.72,2.17,0-1.94.46-1.22,2.28-2.29,2.72.43-.29,1.53.12,1.5-.73l1.76.82c-.4.85-.65-.14-1.5.16-.65.44-2.14,1.16-.81,1.71.86,0,2.17.25,1.72-.59l2,.95c1.06-.72,3-1.46,2.54-2l-1.1-.13c0-.75,1.36-.63,1.64-1l0-.16a.18.18,0,0,1,0,.16l-.33,1c.25,1,1.77.82,2.83.38-1.55-1,.83-1.15,1.9-1.59l-.73-1.82c1-2.13,3-1.74,3.79-3.45-.65-.13-.86.3-1.28.59.59-1.56-1-3.09,1.33-4.68l-.64.15c.86-.29,1.9-1.58.79-2,3.63-1.61-.08,3.53,3.55,1.93-.65-.14.43-.29.21-.43.44,0,.64-.15,1.08.12-1.07.16-.37,1.42-1.72.6a2.14,2.14,0,0,0,1.61,1.81c.2-.15.19-.44.41-.58l.47,1.12-1.1-.41c.87.27-1.85,2.72.75,2.67l-2.17,0c.89.55-.38,1.42-.57,2.13,1.06-.73,1.33.54,2,.67-1.71.87-.1,3-.5,4.1,1.76.53,1.28-.87,1.71-1.16-.6,1.28,1.36,1.67.32,3l0,0,.6-.18c0,.26-.36.28-.6.18l-.9.27c0,.65-.71,1.47-.28,1.8l.79.16a1.24,1.24,0,0,1-.79-.16l-.53-.1c-1.08.16-.4.85-.6,1.28l1.53.12c-1.92,1-2.47-2.08-3.7-.09l1.55.69c1.56,1.24-1.49,1-1.21,2.28-2-.68.12-2.13-2.06-2.37-.64.15-.19.71-.83.86-.45-.28-.9-.84-1.55-.68l.47.84c-1.36-1.11-1.19-2.67-2.31-3.64-.35,2.27-4.13.22-5.15,2.06.66.14,1.64,2.94-1,2.7l.53-3c-2.15.6-4.26,2.33-6.15,3.62-.19,1,.27,1.56.74,2.67l-1.51.17c-.8,1.71,1.74,0,2,1.24-2.6.32-2.27,3.28-5.94,3.48,1.11-.12.72.46.45,1,.27,0,.32.19-.18.54a1.22,1.22,0,0,1,.18-.54c-.66-.11-2.62.35-1.72.14,0-.85,2.15-.88.36-2a1.62,1.62,0,0,0-1.71.6l.17-1-3.23.76c0-.56,1.92-1,.38-1.42l-.42.29a2.89,2.89,0,0,0-.21-.54q0,3.81,0,7.62l.25-.17-.25.28q0,11.08.09,22.17c.06,8.38,2.58,13.51,7.66,15.84l.9-.61-.32.86c.43.17.87.32,1.33.46-.4-1-.85-2.15.22-3.32,2.09-.86,0-3,2.5-4.07a.19.19,0,0,0,0-.08l-.91-.11c1.66-2-.41-4.93.57-7.9l1.76.53L57,423.8c-.59,1.56,1.33.54-.36,1.7.46.56,1.08-.16,1.73,0l-.84.58c.7,1.26,2,.11,3-.33.69,1,1.39,2.23.76,2.95a9.81,9.81,0,0,1-2.81-.09l-.4,1.12c.44,0,.66.13.65-.14,1.11.68-3.14,3.29.52,2.25-.63.43-3,1.17-4.33.35,0,.13,0,.26,0,.4l.18,0-.16.06a6.27,6.27,0,0,0,2,3l.25-.12-.22.15,0,0c-2.38,1.23-.9,3.32-1.1,5.06a32.13,32.13,0,0,0,6.45-.12c1.82-.19,4.61,1.7,5.8,3.42.23.34.47.67.71,1,.44-.56.68-1.07,0-1.5l-.42.29c-1.19-2.66,3.89-.35,3.17-2.17l1.55.68c0-.85,1.26-.87,2.14-.87-.64-.4.66-1.07-.29-1.13a.84.84,0,0,1-.4.15l.21-.15H75c.62-.39.57-1.47,1.45-2.56l-.41.84c2.61,0,2,.4,4.13.08-1,1.29-2.92,3.15-2.66,4.14,2,.95-.59,1.84,1,2.8.82-.86,2.62.53,2.57-.6h-.42c1.27-.86-.7-1,1.68-1.43-1,1,1.82,2.22-.54,3l-1.56-1c-1.23,1.72-2.52,2.3-1.36,4.12.64-.15,1.52-.17,1.93-.73,0,1.4,1.64,3.21-.1,3.24h.44c-.6,1.56,1.68,4.07-1.13,4.53a3.56,3.56,0,0,1-.63.14,61.08,61.08,0,0,0,23.81,13.19c.06-.36.43-.5,1-.87L104,469l1.07-.44a2,2,0,0,1,.37,2c1.83.47,3.71.88,5.63,1.21,7.9,1.36,8.37,1.14,8.38-6.74q0-23.62,0-47.26c-.36.06-.81.13-1.55.3.69-.85.84-1.08,1.55-1.1q0-7.8,0-15.6a3.44,3.44,0,0,1-.46,0h.44l-1.71.58c-.48-.83-.08-2,.11-2.95a2.22,2.22,0,0,0,1.62-.55c0-7.7-7.54-15.39-7.54-23.08h-.13c-.7-.08-.47,0,.13,0v-1.19a1,1,0,0,1-.18-.19l.18-.14V339.24l-.22-.14.13-.09-.38-.89.47.1c0-6.56,7.55-13.11,7.55-19.67l-.14,0a2.12,2.12,0,0,1-.51.66,2.43,2.43,0,0,1-1,1.34c.69.9,1.09,1.6,1.49,2.09l-.45-.28c-4.48,2.19-4,4.72-6.43,7.86l1.94-.17a4.81,4.81,0,0,0-.52,3.25c0-.84-1.93.46-2.16.33l.67.41c-3,1.46-2.64-.81-4.11.49-2.14,1.16-1.15,4.24-1.93,6.51.21-.14.91.84,1.77.82-.57,1.84-3.17,2.17-3.76,3.73-2.19-.53.39-1.13.59-1.56-.22.15-2.37.46-2.34,1.31-1.55-.68-3.75-1.21-1.83-2.51a2.3,2.3,0,0,1-.71-1.71,17,17,0,0,1-3.63,2.65c-.07-1.41-2.42-.67-2.48-2.35l1.53.11c-.69-1-1-2.53.08-3.25l-1.09-.12L96,336.4c.65-.15,2.07,2.93,3.5.51-1.27.86-1.78-1.1-.69-1a25,25,0,0,1,2.2,2.45,2.06,2.06,0,0,0-.21-2.08l-1.53-.41c2.61,0-.73-2.1,1.63-2.84l-1.08-.12a18.75,18.75,0,0,1,1.13-4.25c-.86,0-1.52-.12-1.72.31-1.73.3-1.63-2.66-1-2.52l.65.12c-.91-1.11-.56-3.37-2.73-3-1.56.36-1.68,1-1.66,1.72l.19-.12c0,.56.7,1.53-.16,1.55v-.28l-.11,0a1.38,1.38,0,0,1-.93.67H94l-1.22,1.07,1.45.23-.38,1.41A3.64,3.64,0,0,1,92,328.61c-.76.26.44-.91-1.25-.76.22.43-.19.71,0,1.13a26.31,26.31,0,0,0-2.23-1.66l2.73-2.44c5.56-2.06-.49-6.91,1.17-8.9H92c1-1,2.08-2,.73-3.12l2.17-.31-.49-1.4c1.31,0-.59,1.56,1.57,1.25,2.32-1.88-1.46-3.94.63-6.23,2.1-.86,0-3,2.51-4.07a.31.31,0,0,1,0-.08l-.92-.11c1.42-1.71.12-4.1.33-6.62-.34.58-.89,1.24-1.2,1.73l-.27-1.55-1.51.45c-.4.57-.34,2,1,2l.21-.15c-.19,1-1.39,3.55.13,3.39.48,1.39-2.39.17-2.14,1.16-1.76-.54-1.76-.54-2.24-1.66-1,1-3.62,1.61-5.37,1.36l.82-1.14.91,1.11c1.51-.16,0-1.12.38-1.7l2.19.53c2.33-1.59,1.86-2.42,1.79-4.4-.45,0-1.08.15-1.31,0l-1,2.42c-.91-.84-.53-2.54,1.16-3.69a11.86,11.86,0,0,0-3,.89c.86-.29-1.76-.53-2.88-1.51a2.5,2.5,0,0,1,1.94-.45l-1.56-1,1.29-.31c-.71-1.66.91-2,.87-2.92-1.88,1.05-3.74,2.2-5.57,3.42.13.67,1.31.92.89,1.82a7.09,7.09,0,0,1-2.63-.23,1.54,1.54,0,0,1,.09-.47c-1.29.9-2.57,1.85-3.84,2.83l.82.51c.43-.29.85-.3.63-.72,3.72.93.49,1.69,3.8,2.62l-2.41-.11-.14,2.12,2.79-1c.08,2,3.4,3.47,2.18,5.75.44,0,1.09.13,1.52-.16L86,307.64l-.89-.83a3.38,3.38,0,0,0-1,2.15c.13-.47.27-1,1.56-.77-1.17-.09-1.3.46-1.58.92-.19,1.82.42,3.75-1.49,4.65L80.36,313l-.81,1.14h.86c.49.49-.24.93-.7,1.35a2.85,2.85,0,0,1-.31.49c0-.16.13-.33.31-.49.49-1.12-2-.24-1.06-1.9a1.76,1.76,0,0,0-.76.09l-.47.61c-.06.17-.1.31-.25.31.08-.1.16-.21.25-.31a.83.83,0,0,1,.47-.61,5.48,5.48,0,0,1,3.51-2.24c-.29-1.84-1.08.15-2.43-.68a1.21,1.21,0,0,0,.26-1c-.58.38-1.26,1.86-2.2.85a16.35,16.35,0,0,1,.18-2.51,1.84,1.84,0,0,0-.28.28.78.78,0,0,1,.36-.67c.21-1,.56-1.84,1.1-1.78a3.22,3.22,0,0,0,.7.46l1.46-.18c1.27-.87.57-1.85.31-3.11h-.59a2.16,2.16,0,0,1-1.34.13l.15-.11-1.26,0a.63.63,0,0,0,.29.55,3,3,0,0,1,.59.16c.82.08,1.89-.15,1.78.66a8.23,8.23,0,0,1-1.78-.66,1.51,1.51,0,0,1-.59-.16,1.29,1.29,0,0,0-1.34.45c-.19.71,2,.67.5,1.4l-.69-.41c-3.75-1.77.3,1.83-2.3,2.16.26,0,.45,0,.55,0a.41.41,0,0,0,.1-.18c0,.12,0,.16-.1.18-.51.62-2.59,1.1-1.6.7,3.35-2.88-3.83-3.47-1.13-6.47,1.74.67,1.53-.41,1.73-1.2l-1.17,1V298.1l-3,.18c1.66-1.72.72-3.67,1.53-5.38l-.93.42a3,3,0,0,1-.36.17l.36-.17c.58-.32.84-.76,1.59-.29l.83-2.44c0-5.79,0-11.58,0-17.37a2.49,2.49,0,0,1-.49.48,5.09,5.09,0,0,0-2.88-1.23l1.28-.87c-4.6-.91,2.32-1.87-2.07-2.92,1.81.43.74-1.11,1.27-2-.25-.23-.31-.47.34-.57h.05a3.11,3.11,0,0,1-1.4-1.69l0,0-.21-.14.16-.11a11.91,11.91,0,0,1-.25-3c2.38-.18,1.87-2.15,4.29-1.2h0q0-5.21.1-10.41c0-1.41,1.89-3.26,3.36-4.11.44-.26.84-.53,1.23-.8l-.09,0c.63-1-2.65-1.09-.27-1.55L75.7,243a.57.57,0,0,1-.41-.06l.41.06c.75-.11,1.75-1.2.83-1.77a3.64,3.64,0,0,1-1.12.29l-.12.84-.21-.15.23-.68c-1,.15-1.93.33-.91,1.14-.86-.26-.26-1.26-.27-1.82l.66.41.65-.09,0-.09v.08c2.26-.46-.85-1.81.52-2.74l.9.55c1.71-.88-.72-1.82-2.23-1.38.19-.7,1.73-.31,2.39-.18.85-.29-6.58-5.56-8.1-5.68l-.41.57c-2-1.8-.17-4.23-1.71-4.91,1.94-.45,2.85.66,4.16.92,1-1.28-.93-1.39,1-1.85l-.38,1.13,1.08-.15c.25.7-.17,1.27-.36,2l1.42,0a5.47,5.47,0,0,0,.25-1.7l.5,1.69h-.75c-.71,2.5,5.55,9.4,5.77,10.65l-2.12,1.17c2.37-.18-.53,2.09.75,2.93,3.62-2.91-3.27-11-3-15.88l.21-3.57c-.18.7-1.91.52-2.34.47h0c-.12,0-.1,0,0,0l2.35-.74v.08c.17-3,.35-5.92.57-8.88a1.34,1.34,0,0,1-.26-.09l.26,0c.37-5.08.84-10.15,1.59-15.17a14.5,14.5,0,0,1-2.89-1.16l2.18,0c0-.2.46-.3,1-.41l.12-.74c-1,.77-3,0-4-.64,5-.46-.58-1.6-.32-3-.43.74-1,1.47-1,2.2l-1.53-.11c-4,2.74,2.61,0,2.94,2.63-1.5.73-3.29-.65-4.11.49-1.7,1.16,2.45,1.79.09,2.54-2.8-1.48-.2-4.77-1.76-6.5l-.65.33,0-.84a2.33,2.33,0,0,1,.68.51l.82-.42c0-.07.09-.12.23-.12l-.23.12c-.06.14,0,.4,0,.59,3.91-.07-1-2.81,2.48-3.43,1.76.82,1.31,0,.92,1.39a2.74,2.74,0,0,0,1.29.3l0,0,0,0c.7,0,1.08-.31,2,.64.48,1.66,1.12,1.54,2.22,2.74q.73-4.36,1.69-8.63a.51.51,0,0,1-.23.19c-.85.29-1.94.45-2.13,1.16l1.31,0c-.41.57-.87,0-1.52.17l.82-1.43c-1.89,1.86-5,.22-7.53,2l.16-1.56c-3,.9-.5,4.1-3.74,4.58,1.66-2.28-3-.24-2.46-1.79-3,0-4.23,3.16-4.81,4.73-.65.15-.36,2,.32,3-.63.43-2.6,0-1.69,1.16a1.63,1.63,0,0,0,1.72-.59c1.79,1.38-2.58.89-1.87,2.15-.44,0,.13,3.38-2,4.26-.67-.41-.82-4.36-1.09-5.63-1.31-.26-1.74,0-1.48,1l-2.67-1.65c1.1.41,2.32-1.87,1.84-3,.43,0,1.06-.72,1.3,0-.63.71-1,1.85.09,2.54,1.74,0,1.68-1.72,1.65-2.56l-.21.14c-.71-1.26.33-2.82,1.58-4l-1.51.45.39-1.42.89.55c.62-1,2.75-1.88,2-3.42,1.94-.45.46.56.26,1,2.14-.6,4.39,1.05,6.53.46-.72-1.83-.59-4.22-1.12-6.48l1.75.26c-1.1-.42.13-2.4-1.2-2.95l2.82-.18c0-.57-.9-.83-2-1l1.29-.3c-2.6.32-4.18-1.49-6.32-.32l.51,1.68c-.63.72-.69-1-1.56-1,.68,1-.59,1.56.1,2.82.27,1.27-1.89,1.58-3.21,1-.05-1.13,1-2.69.72-3.69l-.43,0c-.5-2.78,2.67-.85,3.11-2.55l-.16,0c-.46-.28,0-.57.19-.71a2.22,2.22,0,0,1,0,.75c2.6.53.68-1.74,3.26-1.51,0-.56-2.9-1.78-.51-2l-.41.85c1.3-.3,3.87-.91,3.43-1.19l2.61,0c-.61,1-2.35,1.3-3.16,2.44,1,2.53,4.69,3.45,4.58,6.14l.41-.58-1,1.86c2.2.81,1-1,2.54-1.74-2-.95-.1-2.54.07-3.81-3.16-3.05,4.53-.77,4-3.59l.31,2.67c-.91-1.11-2.16.32-1.92,1l1.74-.31c-1.51.46-.37,1.7.5,1.69a2.94,2.94,0,0,0,.83-.15,1.41,1.41,0,0,1,.41-.67c-.14-.85-1.43-2.14.57-2.74-.4.85-.18,1,1.11.69l-.1,2.68L78,179.46l-.23.2a.56.56,0,0,1-.41.67.53.53,0,0,0,0,.41c1.73-.3.7,1.26,2.41.38v0c1.48-.21,1.33.43,1.48,1,.13-.52.27-1,.41-1.55a1.41,1.41,0,0,1-.85.13c.72-.24.71-.36.46-.47l-.23,0,.12-.06c-.38-.14-1-.31-1-.75a13.64,13.64,0,0,0,1.8.26l.15-.53-.22,0h.23c.21-.75.44-1.5.66-2.26l-.52.57c-.67-.41-.48-.84-1.76-.54.42-.29,1.28-.58,1-1-.24,0-.55,0-.85,0l-.66.18a1.33,1.33,0,0,1,.66-.18l1.49-.41c-.12.46.4.49.89.45,1.52-5,3.27-9.8,5.21-14.52H88l-.08-2,.89.27c.6-1.28.74-3.4-1.22-3.23a8.12,8.12,0,0,1,2.88,0L91.1,155c-.74,0-1.52,0-1.46-1.13l-1.91,1.3.62-.71-1.29,0c.2-.43,1.28-.59,1-1.29-.84.57-1.32-.54-2.2-.81l-.2.42-2.19-.53c-2.77,1.6,2.63.81.71,1.83a2.4,2.4,0,0,0,1.84,0,1.9,1.9,0,0,1,.33-.29,1,1,0,0,1-.33.29,5.37,5.37,0,0,1-.72.71c-.25-.7-1.3,0-1.57-.95-.19.42-.81,1.42-.14,1.83,0,1.11-1.55,1-2.27.9a.54.54,0,0,0-.07.13c-.46-.19-.32-.17.07-.13.21-.36.53-.64.32-1-1.35-1.11-1,1-2-.67-2.13,1.16.27,1.26-.12,2.4-1,1.28-2.74,2.16-3.13,3.29L76,159.49l0,0a1.79,1.79,0,0,1-.38.25l.38-.25c.95-.85.41-2.43,2.57-2.33a9.49,9.49,0,0,0-2.23-1.38l-1.06.72-.69-1.23-.43.26.42-.29v0c.46-.25.79-.42.61-.74l2,.67,1.2-3.12,1.09.12c1.75-.76,1-1.56.62-2.28-.28-.16-.37-.4-.08-.69A.78.78,0,0,0,80,150a2.72,2.72,0,0,0,2.33,0c0-.29,0-.85-.91-.84.57-2.12,5.19-.93,5.83-1.36,2.62.52-1,1.57.3,2.39a3.74,3.74,0,0,0,1.22-.07l.07-.23c.06.11,0,.19-.07.23l-.31,1.18c.42-.28,3.81-2.59.76-2.83,1-1.28,4.1-.77,5.58-2.06.35,0-.74,1,0,1.22.39-.74.78-1.48,1.18-2.21a7.24,7.24,0,0,0,0-3.27c.66-.62,1.27-.09,1.84,0l.61-1.06-.06-.18a4.68,4.68,0,0,1-.88.16,5.61,5.61,0,0,1,.06-3,3.22,3.22,0,0,0-.9-1.07l-.2.14c.15-1.56,1.44-1.86,3.42-1.46.3.18-.07.29-.46.42l.39.45c.48-.1,1.07-.2,1.57-.32.69-1.09,1.38-2.18,2.1-3.25a1.35,1.35,0,0,0-1.14-1c1.06-.19,1,.49,1.21.9.25-.38.5-.75.76-1.12l-.24-.1.45-.23,1-1.47a2.41,2.41,0,0,0-1.08.57,1.1,1.1,0,0,1,.26-.76l0,0-.22-.14,1.48-1,.23.14-.1.07a2.59,2.59,0,0,0,.47-.32,172,172,0,0,1,34.31-35.85h0l-1.51.45,2.33-1.59-.16.63q3.7-2.86,7.57-5.54a2.89,2.89,0,0,0-.24-.74.66.66,0,0,1-.2,0l-.05,0a.06.06,0,0,1,0,0,.89.89,0,0,1-.41-.24,1.65,1.65,0,0,1,0-1.09c-.73-.48-2.11-.48-2.73-1.37-.3.08-.6.17-.84.26l1-1.57c.44.28.85-.3,1.52-.16l-.11,1c.68.33,1.28,1.06,2.3.37,0,.16.08.33.13.5l.77-.52a2.17,2.17,0,0,1-.75.61l.27,1,.11.05-.08.07q.14.56.24,1.11a178.47,178.47,0,0,1,35-18.56,2.2,2.2,0,0,0-.06-.53,1,1,0,0,1,.11.51q5.29-2.08,10.7-3.83c.91-1.22,2.11-.82,3.17-1.31a.88.88,0,0,1,.19-.65l0,0,.07,0a1.27,1.27,0,0,1,.45-.26c-.84-.1-.62-1.5-1.22-2.11,1.29-.59,4.5-1.62,3.92.5-1.53.68-1.66,1.49-1.46,2.33,1.54-.45,3.09-.87,4.64-1.27l.08-.12c-1.05,0,.15-.18.21,0,1.46-.37,2.92-.73,4.39-1.07l0,0,.32,0q5.22-1.18,10.5-2.06l-.05-.34.29.3,1.26-.21a12.16,12.16,0,0,0-.93-.81l1.54.4.17-1.27h0l.79-2c1.56.63.25,1.67-.79,2,1.13.35.89,1,.4,1.49q6-.89,12-1.36a22.75,22.75,0,0,0-1.12-3.13c.53-.18,1.18-1.54,1.42-.71l0,.33c-.39,1,0,2.18.6,3.44a168.5,168.5,0,0,1,37,1.4,4.58,4.58,0,0,0-.27-1.85c-1.61-2.09,2.78-1,3.14-3-.92-1.4-.78-3.23.25-5.08-.66.15-.89-.27-1.34-.55l1.09.13c-.24-.7.18-1,.61-1.29-1.87,2.44,2.85,1,1.65,3.23l.24,0c.11-.27.23-.53.32-.77a.52.52,0,0,1,.24-.62c-.06.18-.14.39-.24.62.1.34.36.64-.32.77-.53,1.24-1.16,2.74-1,3.42a.67.67,0,0,1,.22-.13l-.22.14h0c-.27.27-.23.78-.2,1.31a1,1,0,0,1,.74-.41c.14,2.14,1.47,0,2.71.91a4.26,4.26,0,0,0-.74,2.8l.87-.71c0-.53,1.29-1.28,1.72-1.57h0A7.54,7.54,0,0,0,284.75,52a16.87,16.87,0,0,1,2.9,1.78l-2.41-.1c1.12.69-.39.85-.8,1.42l-1.33-.81c-.53.54-1.12,1-1.73,1.56,0,.26.28.47,1.14.55a9.37,9.37,0,0,1-2.07,1.68s0,0,0,.08c1.27.24,2.55.5,3.82.78a.38.38,0,0,0,.1,0l.26.11c1.72.38,3.43.78,5.14,1.22,0-.29,0-.51.3-.62.44.34.55.6.46.81l.49.13.19-.28c0-.1.1-.26.37-.49l-.37.49c0,.42,1.48.06.32.41q1.47.39,2.94.81c.08-.56.17-1.06-.27-1.2.41-.84,1.08-.43,1.74,0-1.06.45-1.09.94-.75,1.43,3.64,1.06,7.26,2.24,10.87,3.57a8.4,8.4,0,0,1,.34-1c.94.19.82.82.64,1.41l2.23.85,0,0,0,.08,1.86.74a3.15,3.15,0,0,0,.5,0c.15-.13.22-.26.12-.44l1.44.48c0-.54.51-1,1.11-1.3l.63-1.63,1.09.12c1.75-.77,1-1.57.62-2.28-.28-.16-.37-.4-.08-.69a.79.79,0,0,0,.08.69,2.68,2.68,0,0,0,2.33,0c0-.28,0-.84-.91-.83.57-2.13,5.19-.93,5.83-1.36,2.62.52-1,1.57.3,2.39a3.74,3.74,0,0,0,1.22-.07l.07-.23a.14.14,0,0,1-.07.23l-.31,1.18c.42-.28,3.81-2.6.76-2.83,1-1.29,4.1-.77,5.58-2.07.42,0-1.26,1.44.69,1.26.36-2,1-3.26.44-5.51,1.05-1,2,1,2.8-.46-.9-.83-.33-3.24-2.13-4.62l-.2.14c.15-1.56,1.44-1.86,3.42-1.47.66.41-1.94.46-.83,1.14.58-.39,2.75-.46,3.31-1-1.53-.8-3.07-1.56-4.62-2.31a4.5,4.5,0,0,0,.8,1.34,6.52,6.52,0,0,0-4.88.72v.11l2.15,1.33c-.42.29-1.05,1-1.5.73,1.3-.31-.26-1.27-.71-1.54l.06-.52-.08,0,.09-.06.43-3.77-1.26-.58-.23.73-1.7-.77a.56.56,0,0,1,.69-.5A184.49,184.49,0,0,0,271,28.38c-.15,1.39,1.45,2.26-.48,3.44-.35-.66-1.08-.64-1.63-.8l-.79,1.67-.36-.32c.63-1.32,1.06-3.06,2.31-4.07q-5.85-.51-11.84-.7a.89.89,0,0,0,.67,1.12c-2.23.7.67,1.65-1.53,1.36-1.33,1.18.49,1.49,1.21,2.14-.92-.15-2.57-.28-3.09-1.11L253.66,34c.77-.68,1.27.48,2-.21-.61,1.85-1.9,1.71-1.24,4h.12c.2-.37.41-.71.63-1,.05-.34.11-.62.41-.63-.14.2-.27.42-.41.63-.07.44-.11,1-.63,1-1.28,2.29-2.28,5-3.35,7.43.24-2-.9-2.65-1.17-4.15.38.33.6.82,1.14.64.32-.67.84-1.19.62-2-3.33-.51-1.05-2.33-1.51-4.22-.18-.09-.3-.31-.34-.75a2.08,2.08,0,0,1,.34.75c.44.23,1.2-.32,1.86-.45l-.69-1.33c1.36-1.87,3.68-4.58,3.92-6.08l.31,1.33a5.47,5.47,0,0,0,1.13-1.37,234.87,234.87,0,0,0-29.61,1.19C227.2,29,227.2,29.18,227.2,29.3ZM46,363.31c.65.13,1.29,0,1.52.4C46.91,363.86,45.62,364.45,46,363.31Zm11.83,13.92-1.77-.53,2.18,0Zm-6.36,38.19c-2.19-.53.48,1.13-1,1.57l-2.18-.24c1.94-.46,1.69-1.44,1-2.42l-.42.29c-1-2.24.15-1.84-.58-3.94l2.16,0C50.49,412.06,52.3,413.72,51.49,415.42Zm-1.34-6.6.05,1.41c-.23-.43-.88-.27-1.74-.26A2,2,0,0,0,50.15,408.82Zm-1.69-4.63,1-.73,1.49-.72Zm1.43,3.36,2.39.1C50.78,408.38,51.21,408.09,49.89,407.55Zm0-6.63c.68.41,2.22,1.09,2.43.67-.21.42-1.94.45-2.81.75-.46-.84-.28-1.83-1.81-1.95v.29c-.89-.56,1.7-1.16,2.32-1.88a1.72,1.72,0,0,0-.47-.22c-.25,0-.47.06-.62.1a.71.71,0,0,1,.62-.1c.86-.12,2-.31,1.51-1.07h-.43l1.06-.44-.68-1C54.05,397.18,50.87,399.35,49.84,400.92Zm6.38,14.81a.85.85,0,0,1-.79.19l-.12,0-.32.06v-.23a.22.22,0,0,1,0-.38l0-1.09c1.8.36.44.7,0,1.09l0,.38a1.24,1.24,0,0,0,.33.17,4.1,4.1,0,0,0,.91-.15c.11-.09.19-.19.27-.25A.51.51,0,0,1,56.22,415.73Zm1.5,4.5-.38.47a.83.83,0,0,1,.38-.47l.66-.83,1.11.69C59.5,420.32,58.37,419.85,57.72,420.23Zm.6-30.59.18-1,1.1.4Zm2.91,41.71c-.79-1.18.37-.57.58-1,0-.15-.05-.27,0-.32a.46.46,0,0,1,0,.32C61.88,430.73,62,431.24,61.23,431.35Zm2.86-44.49.16-1.27.67.41Zm49.67,82.72.4-.57,0,.28c2,.11,1.46-1.57,2.34-1.3C115.48,469.27,115.48,469.27,113.76,469.58Zm5.48-15.6c0,.84-.11,3-1,3.26C117.62,456.83,118,454.84,119.24,454Zm-1.42,8.2a1,1,0,0,0-1.1-.12,3,3,0,0,1-.06.74,1.55,1.55,0,0,1,.32,0c.34.41-.17.6-.54.85a3.94,3.94,0,0,0,.27,3.67c-1.13-1.26-1.7.87-1.95.17,1.06-.73,1.64-2.56.35-2.26-2.4-.39-.36,2-2.77,1.31,1.59,0,.94-1.2,1-1.94a1.86,1.86,0,0,0-.59-.12l-.9.1a3.19,3.19,0,0,1,.9-.1l.62-.07a1.08,1.08,0,0,0,0,.19,2.24,2.24,0,0,0,2,.2c-.45-.27-.43-.87-.81-1.19l-1-.19a1.23,1.23,0,0,1,1,.19l1.64.33a.8.8,0,0,1,.29-.29,5.7,5.7,0,0,0,.22-.81,2.24,2.24,0,0,0-.76.4l.61-1.28c-1.33-.26-.63.71-1.49,1l.37-1.7-1.53-.11,2.59-.62c-.89-.54-.94-1.95,1-2.12-1.17-2.1-3.61,2.17-3.72-.36.89.55,2.8-1,3.91-.07C120.5,458.33,117.12,460.92,117.82,462.18ZM117,412.77l.72.88-1.09-.41c.15-.1.4-.28.37-.47l-.19-.23A.35.35,0,0,1,117,412.77Zm-.35,1.32-.84.57c-.68-.69-2.41-.37-1.57-1.23A3.21,3.21,0,0,1,116.62,414.09Zm0-6.07-2.12,1.45c-.47-.67.39-.9.63-1.29-.5.05-.8,0-.27-.69.35.3.38.52.27.69A8.93,8.93,0,0,1,116.61,408Zm-.44-22.84-2.16.31C113.53,384.37,116.15,384.61,116.17,385.18Zm-4.61,21.37c0,.56,1.17,2.38-.77,2.84C109.65,407.85,111.16,407.41,111.56,406.55Zm-2.49,3.15c2.4.38,2,1.52,3.56,2.2-2.4-.1,1.41,2.79-2.06,2.85l.17-1-1.28.3c1.05-.72-.7-1.25-1.15-1.53-.64.43-1.23,2-1,1,1-1-.73-1.82-1.4-2.24C108.48,411.26,106.43,409.17,109.07,409.7Zm0,10.72a1.37,1.37,0,0,1,0-.19c0-.9-1.13-1.69-.56-2.62,2,.22.72,1.73.56,2.62A.58.58,0,0,1,109,420.42Zm-.37-4.08,2.4.1A1.64,1.64,0,0,1,108.67,416.34Zm-.58,41.48c-1.1-.4,1.88-1.86-.1-2.81,1.51-.17,4.37.77,5-.79-.89-.55-1.28.58-2,.17,1.25-1.44,3.5.51,3.65-1.33-.42-.25-1.54-.25-1.7.18l0,.13a.31.31,0,0,1,0-.13l.14-.85a3.38,3.38,0,0,0-.54,0c-.1.1-.19.2-.31.3.1-.2.19-.27.31-.3,2-2.07.51-2.93,2.08-5.39,5.94,2-1.5,6.24,1.43,9.16-1.24,1.42-1.94.45-3.64,1-2.29,2.22-2.68,3.67-2.54,5.09l.12,0-.12.05c.19,1.68,1.06,3.33.35,6.16-2.09,2-2.42-1-4.16-.93,1.68-1.14.75-4.16,3.81-5.23v-.09c-3.77-1-1.28-1.65-4.12-2.86C105.51,458.43,106.36,457.85,108.09,457.82Zm-2.19,5-.16,1.84-1.11-.69C105,463.66,105.45,462.8,105.9,462.79ZM95,309.26c0,.11,0,.21,0,.32a.55.55,0,0,1,0,.31c0-.1,0-.21,0-.31a.75.75,0,0,0-.05-.16l-.12.31-.47-.84.22-.16c-.16-.33-.14-.6.59-.68,0,.12-.05.22-.07.33l.32-.21Zm1.44-6.56,0-.16a.44.44,0,0,1,0,.16l-.14,1.1-2.6.05C94.51,303.57,96.25,303.41,96.46,302.7Zm-16.15,2.47,0,.56-1.1-.41ZM75.64,433.38c-1,1.28,0-.57-1.74-.26C74.31,432.55,75.42,433,75.64,433.38Zm-4.82-41-.89-.55c-.44,0,0,.56-.19.71l-.46-.56C69.93,391.85,71.2,391.26,70.82,392.4Zm-1.51-5.34-.84.86-2-.95Zm1,16.07c0-.85-2.69-1.93-1.65-3.23-1.51.17-1,1.3-2.33,1.6.62-.72,3-2.59.55-2.69l2.59-.32c.47.55,1.31,0,2,.39C69.82,400.6,70.71,401.15,70.36,403.13Zm1-6.51c.38-1.42-2.39.18-1.57-1.24-.15.33-1.67-.18-2.31,0l-.29.33c0-.19.11-.28.29-.33l.34-.38c1.11.68,2.08-2.58,3.83-2l.25,1c-.65-.13-.89-.83-1.54-.68,1.34.82-1,3.26,2.73,3.06Zm1.28-.87.17-1C74.16,394.74,73.54,395.45,72.69,395.75Zm1.4,42.17c-1.32-.26.61-.72.82-1.15C75.17,437.76,74.47,436.78,74.09,437.92Zm1.5-6c-.24-.7,2-3.13.92-4.66-.88,0-.19,1-.4,1.41-.46-.55.18-1.27-1.32-.83.6-1,1.68-1.15,1.21-2.27l2,.11c.34-2.54-1.1-5.91,1-9l-1.3,0c2.38-.18.18-1,.81-1.43l1.3,0c.29,1.83.62,4.79,2.41,6.45-.83.29-2.46,2.25-2,3.37l.22-.09-.21.14a.09.09,0,0,1,0-.05c-2.27,1,2.4,1.61.35,3.29-.27-1.26-2.82-.1-2.78,1.32,2.19.52-1,1,.94,1.67Zm4.16-90.53c.86,0,1.46-1.57,1-1.28.67-1.25-.38-1.07-1.39-.7a11,11,0,0,1-1.26.54c-.18.08-.26.12-.18.06l.18-.06c.26-.12.76-.36,1.26-.54,1.69-.9,1.12-1.69,1.25-3,1-.73,1.95-.17,2.83.1,1.27-.86-.91-.83.82-1.15-1,1.3,2,1,2.87.94-.86.3-1.49,1-.81,1.43l-2.18,0c.46.55-.8,1.7.7,1.26a19.16,19.16,0,0,0-4,3.58l-.47-.83c-.19.71-2.57,1.17-3,.33,1.73,0,1.46-1.58,2.77-1.59C80,341.29,78.85,340.6,79.75,341.43Zm2.57-6.67.62-.71.87,0Zm2.67,8,.83-1.14.7,1.25C86.07,342.63,85.46,343.63,85,342.79Zm-2.06,14.14.82-1.14.67.41ZM81.15,367.4l1.45-1.86C84.15,366.23,82,367.67,81.15,367.4Zm-3.21,46.19.6-1a4.7,4.7,0,0,0,.23.87l.24,0c.13.23,0,.38-.21.5s-.17.21-.41.21c.09-.06.26-.13.41-.21a.86.86,0,0,0,0-.47Zm.54-8.2c-.28-1.54-.61-4.5,1.76-5.24C80.53,402,79.55,404.67,78.48,405.39Zm.46-61.66c0,.57,2,.11,1.35,1.11C79.84,344.56,77.67,344.59,78.94,343.73Zm-.09,54.18.63-.71c.21.14,1.07-.17,1.08.12ZM77.77,438l-1.13-1.54,1.72-.31Zm4.52,4.44c-1.15-.39-.61-.76.08-1.14a2.22,2.22,0,0,1,1.14-.85c-.07.29-.64.57-1.14.85A1.07,1.07,0,0,0,82.29,442.44Zm4.52,4.44c-1.72.31-.4.85-1.74,0-.25-1,1.93-.74,1.25-1.71-1.08.16-1.53-.11-1.77-.83.66.42,2.82.1,1.77.83l1.5-.17ZM88.7,445c1.07-.44,0-1.12.6-1.56C90,443.87,89.78,444.86,88.7,445Zm2.48-13.27.29.67c-.44-.36-.45-.54-.29-.67l-.19-.45c-.59,1.29-3,0-4.13-.07l-.18,1.27,2.19,0-1.5.73c.66.41,2.4.1,2.36-.75l1.37,1.67c-3.29-.65-1.88,1.87-4,3a.94.94,0,0,1,.88,0c-1.5.73-2.4-.39-2.56,1.17,1.74.25,0,1.41,2.42.95-.14,1.83-1.33-.83-2.37.46-.19.42.67.41,1.1.4-.64.44-.4.86-.81,1.43a3.87,3.87,0,0,0,1-.05,3.47,3.47,0,0,1,.33-.26.51.51,0,0,1-.33.26c-.37.35-.46.69-.28,1h.44l-1,1.29a6.18,6.18,0,0,0-2.85-.67,3.58,3.58,0,0,0,1.58-4.25c-.33,0-.9-.31-1.35-.22l-.39.25a.61.61,0,0,1,.39-.25c1.64-1.19-.53-2.11-1.19-3.55,1.31,0,.85-.58,1-1.29-2-.39-2.37.47-4.76.36.24.7.47.84-.61,1.28l-.5-1.69c3.71.65,1.38-3.55,3.51-4.71.71,1.27-1.89,1.86,1.4,2.52l-1.47,1c1.1.69,2.15-.32,3.68-.21,1.24-1.43-1.34-.82-1.59-1.8l1.31.26.59-1.84c3.92.22,4.65-3.46,6.15-3.91a7.81,7.81,0,0,0-1,3.82c.48.84,1.58,1.25,2.47,1.8C92.6,431.46,91.51,431.47,91.18,431.74Zm3.53-11.37c.42-.29,1.06-.44.83-.86l-.86,0c.86,0,2.53-1.74,4.09-1.06C96.58,418.51,96.66,420.2,94.71,420.37Zm6.74-74.07-.36,1.71c-2.15.59-.69-.7-1.78-.82a.85.85,0,0,0-.48.42,1,1,0,0,1-.08.55c0,.29.06.51-.26.45a1.78,1.78,0,0,0,.26-.45,1.07,1.07,0,0,1,.08-.55c-.13-.74-1.22-.86.23-1.41C100,347,100.77,345.61,101.45,346.3Zm-2.34-3.6c-.64.15,1.17,2.1-.8,1.71A1.19,1.19,0,0,1,99.11,342.7Zm-.84,12.15-1.73,0v-.29Zm-1.71.88a6.23,6.23,0,0,0,1.78.81c.49,1.4-3.59,2.46-2.24,4.13-2.19-.54.17-1.27-1.82-2.23C97.33,358.67,94.64,356.46,96.56,355.73ZM96,415.13c-1.77-.53-.25-.7-.06-1.41,4.8.77-.52,3.25-.47,4.66-1.13-1.25.17-1.27-1.84-2.51Zm-.76-82.55c.23.41-1.87,2.14.74,2.1l0,0h0l-1.66,2c0-.21.09-.48-.11-.67l-.07-.05a.79.79,0,0,0-.29-.12l.23.07C93,335,94.5,333.65,95.27,332.58Zm-1.26,81c-.68-.7-1.92.74-1.77-.54l.84-1.14C93.74,412.34,93.79,413.47,94,413.61Zm-2.47-76.46.39-1.13c1.79,1.65-1.83,2.14-1.17,3.66v0l.34-.15a2.31,2.31,0,0,1,.45-1A1,1,0,0,1,92,339c.24-.19.46-.4.72-.57.44.26.24.7.48,1.11,0,.85-1.27.87-1.91,1l-.47-.83h0a0,0,0,0,1,0,0L89.83,338C90,337.31,90.85,336.46,91.54,337.15ZM89.27,341l-.84.59-.26-1Zm-.8,81c-.7-1.25.37-1.7,1.19-2.55-.58,1.24-.17,1.8-.3,2.75a1.34,1.34,0,0,1,.62-.36l-.63.43a.15.15,0,0,0,0-.07c-.52.6.61,1.38.27,1.62-.28-1.55-2.15.88-2.21-.82C88.73,423.29,88.26,422.45,88.47,422ZM86.75,315c-.41.58.32,2.68-1.47,1.58C86.37,316.38,86.11,315.4,86.75,315ZM82,315l1.3,0-.61.14c-1.16.88.85.6,1.48.72l-1.91,1c-.23-.64-.63-1.17.32-1.71l-1.22.29Zm-.59,1.57-.21.42a2.46,2.46,0,0,1,.8,0l.72-.13A1.12,1.12,0,0,1,82,317l-1,.18Zm-2.78,1.91c1.5-.46,3.24-.48,4.72-1.5a13.13,13.13,0,0,1,4.25,3.18l-1.24,1.72c-2.17,0-1.54-.68-2.24-1.66-1.05.72-1.7.87-3.44.62l-.54,3c-.46-.84-.71-1.26-2.21-1.09A4.5,4.5,0,0,0,78.63,318.49Zm-1.14-2.13c.49,1.4-.82,1.42-1.42,2.7C76.24,318.07,75.54,316.53,77.49,316.36Zm1.1-4.51c-1.52-.12-1.91,1.3-2.59.61A3,3,0,0,1,78.59,311.85Zm-4-3.6,1.3,0-.36,1.71C73.73,310,74.56,308.81,74.54,308.25Zm-.33,2.83c.19-.43.86-.3,1.73-.31l-1.28.86C74,311.5,74.23,311.36,74.21,311.08Zm.69-91.68a.78.78,0,0,1,.51-.22c-.07.16-.27.2-.51.22-.38.37-.53,1-1.2.37C74,219.41,74.49,219.44,74.9,219.4Zm-2.71-17.12-.38,1.7c-1.08-.13.38-1.43-1.55-1A2.7,2.7,0,0,1,72.19,202.28Zm4.3-12.21-.38,1.14L75,190.8ZM60.19,261.9l1.53.4c-1.29,0-1.25,1.15-1.91,1.29C60,263.17,59.13,262.34,60.19,261.9ZM65,324.35c.65.13,1.07-.44,1.28-.59l-1,1.11c0,.14-.08.29-.43.47l.43-.47c-.06-.42-1.22-.79-.91-1.41l-.22-.06-2.17,1,1-1.29c.54.16.89.24,1.13.29l.39-.17a.85.85,0,0,0-.17.23C64.63,323.56,64.67,323.69,65,324.35Zm1-3.26c-1.12-.69-1-2.24.76-2.84C64.54,319.42,67.38,319.8,65.91,321.09Zm-.55-32-.22-.13,1.68-1.16Zm-5.5,43.69,2.72.09c-.26-.4-1-.4-1.06-.92l-.29,0h-.09v0a11.65,11.65,0,0,0-1.52-.09c1.07-.44,1-1,1.45-1.57l.07,1.66.1,0,.28,0a.82.82,0,0,1,0-.21c.41-.57,3.22-1.05,1.67-1.72,1.9-.15.7,1.46,1.43,1.95a2,2,0,0,1,1,.12,1.49,1.49,0,0,1-1-.12c-.89.19-.95,1.29-2,1.31a.25.25,0,0,0,0-.09,1.38,1.38,0,0,1-.59.49C62.23,332,60.13,334,59.86,332.73Zm-.1,15.12-1.95.17c.42-.29,1.07-.72.41-.85l1.91-1C60.38,347.14,58,347.32,59.76,347.85Zm-1.9-72.2c.47.83,2,.11,1.78,1.09C58.56,276.9,57.89,276.5,57.86,275.65ZM59.34,325l-1.05,1c-.22-.14-.66-.41-.23-.71C58.48,325.27,58.9,324.71,59.34,325Zm2.33-12.29c-.43,0-2.13,1.16-2.17,0Zm-1.16-8.47,1.5-.73-.84,1.14ZM63,319l-1.34-.83,1.54.4Zm-3-32.43c.19-.71-.87-.27-1.53-.68,1.49-.45,2.13-.88,2.11-1.45.67.42.48,1.41,1.77,1.1C62.43,286.41,60.3,287.29,60,286.59Zm-.14-17a6.92,6.92,0,0,1,.76-.21,1.44,1.44,0,0,1-.76.21c-.91.3-1.5.71-1.13,1.38l.44,0c-1.69,1.45-2.75,1.89-3.55,3.87-.65-.13-1.57-1.24-2.19-.24.6-1.57.93-4.11,2.2-5a3.86,3.86,0,0,1-1.75-.26C55,267.65,58.1,269.65,59.9,269.6Zm-6.3,36.45-1.3,0,.85-.58Zm3.07-38.85c1.11.69.89.55,0,1.13Zm2.11-19.11c.41.5.29.89-.36,1.18,0,.06-.09.1-.24.1a1.33,1.33,0,0,0,.24-.1C58.53,249,57.53,248.23,58.78,248.09Zm-1.22-9.29-.79,2-.26-1ZM56.5,262.1l-.86.3-.69-1Zm-2.73-14.63a.29.29,0,0,1,.19.16c.56.58,0,1.53,1.17,1.51l-1.89,1.58c-2-1,.93-2.51.72-3.09Zm-1.43,47.85.45.28-1.69,1.15ZM52,303.68l-.23-.14c.42-.29,1.07-.44,1.49-.73,1,1.51-1,1-2.54,1.39l-.87.36a2.5,2.5,0,0,1,.87-.36Zm-.8,1.7.21.14-1.69,1.15-.22-.13ZM48.5,274.5c1.49.22.34,1.19.49,1.46l.23.08c-.13,0-.2,0-.23-.08l-1.76-.6Zm-.12,31.64a1.75,1.75,0,0,1-.25-.59c-.45-.29-1.36-.22-1.53-.51,1.24-.64,1.38-.07,1.53.51A.51.51,0,0,1,48.38,306.14ZM45.31,299c-1,1,.07,2-.55,2.69L43,300.83c2.75-1.88-.86-5.21,2.56-7l-.41.86,2.37-.75c-.86.3-.83,1.43-2.36,1,.92,1.4.54,2.82,1.87,3.64Zm2.35,28.21,1.08-.73-.24-.13.87,0Zm2.11-1.73c-.67-.41-1.34-1.11-2.2-1.09,1.7-.59-.12-2.82,1.41-2.71-.37,1.7,2.41.39,2.65,1.09l-2.38.18c0,.56.46.84.91,1.11a4.75,4.75,0,0,0,1.43-.08,1.13,1.13,0,0,0,.29-.23.49.49,0,0,1-.29.23C50.76,324.39,49.16,324.34,49.77,325.44Zm-2.15-5.19,1.08-.16.88.28Zm3.67-.48a1.85,1.85,0,0,1-.19,1.72c0,.11,0,.2-.16.26,0,0,.07-.1.16-.26C50.94,321,49.57,320.25,51.29,319.77Zm-.24-.7.86-.58c1.47-1,1.34,1.39,1.33.83Zm.89,13.79-.11-.14a.6.6,0,0,1,.11.14c1.26,1.6-2.49.36-2.44,1.72C49,333.27,52.28,333.51,51.94,332.86ZM49.69,357l1.52.12-1.72.6C48.84,357.62,49.92,357.47,49.69,357Zm.88,23.13-.6,1.28c-.45-.28-.68-.69-1.12-1Zm-1.25-4.36.83-1.14.25,1Zm.62-12c0-.56-.26-1.26.15-1.83C50.33,362.4,51.23,363.51,49.94,363.81Zm1.51-.45c-.71-1.25,2.57-.88,1.22-2C54,361.63,52.54,363.49,51.45,363.36ZM50,360.57c1.27-.59,1.9-1.31.79-2l2.45,1.52Zm5.23-50.46-.72-1.82-1.48,1c.48,1.13-.89,5,2.85,6.44l-1.87,2.15c0-.56-2.41-.66-2.6.05-5,.5-1.23-3.51-6.2-3,.84-.57,5-.5,3.61-2.17l2.19.53c1.08-.17.19-.72.39-1.14-.86,0-1.49-.07-2-.13l-.56.7c-1.73.6-2.23-1.37-2-2.07,1.54.39.25.42.91,1.11.31-.41,1.41-.77,1.57-1.08a2.5,2.5,0,0,1-.26-.33l-.06,0-1.08-.12.84-.58a1.36,1.36,0,0,0,.3.72c.25.11.31.22.26.33l0,0c0-.21.19-.4.72-.5,1.53.4-.63.72.27,1.26a11,11,0,0,0,2.14-.88l-.23-.14c.39-1.41,1.44-2.13,3.6-2.45C53.7,308.87,57.86,309.5,55.27,310.11Zm-1.77-1.68c.42-.29,1.07-.45.84-.87-.87.3-3.05-.23-2.14.88l-.91-.83c3.26.09,2.27-3,4.65-3.46.45.27.9.83,1.55.68C55.34,305.43,55.44,308.24,53.5,308.43Zm4.3,61.89c-1.09-.13-.68-.7-1.34-1.11C57.54,369.33,58.42,369.6,57.8,370.32Zm-1-3.09c-.18-.34,0-.58-.09-.81a.55.55,0,0,1-.17-.17.39.39,0,0,1,.17.17c.31.2.84.12,1.37.22Zm9.37-10.73c-1,1.28.6,4.22-1.08,5.94,1.11.41,3.29.65,2.67,1.64a5.44,5.44,0,0,0-3.93-.49c-.17,1.27,1.56,1,2.86.94-1.51.16-1,1.29-2.75,1.59.44.28.9.84,1.08.13-.57,2.12-.91,4.68-3.7,5.7l.17-1.55a1.41,1.41,0,0,0-.65.15c1.22-2.28.73-3.68,1.06-6.23-1.29.31-1.69,1.16-3.65,1-.49-1.39,2.94-2.57,2.47-3.7-.65-.13-1.52.17-1.49.73-.46-.56-1.42-2.8,1.2-2.84.63-.15-.14,2.4,2,1.24-.18,1-1,1.85-.12,2.68.85-.29,2.6,0,2.35-1-.68-.7-1.15-1.54-.5-1.69-.41.85.45.56,1.34.83-.72-1.54-.29-1.83-1-2.81,1.72-.88-.29-2.11,2.08-2.86l1.31.55Zm.18-7.37,1.09.12,0,.85Zm1.51-22.74a.43.43,0,0,1-.16-.28c-.6-.07-1.8,0-1.38-.69,1.37-.94,1.23.12,1.38.69C68,326.14,68.15,326.2,67.87,326.39Zm4.72-16.05a1.52,1.52,0,0,0,.71-.37,1,1,0,0,1-.71.37c-.88.2-2-.07-2.3.8C69.9,309.58,71.49,310.46,72.59,310.34ZM69.9,282.76l-.62,1-.49-1.41Zm-6.54-88.92v0c2-1,.18,2.21,3.1,1.89l-1.7.88a15.08,15.08,0,0,1-.95-2l-.22.14-.23-.95-.22.11Zm6.9,47.88c-1.31,0-2.24-1.65-2.24-1.65C70,239.89,68.71,241.32,70.26,241.72Zm-2.81,80a2.49,2.49,0,0,0,2.42-1l-.06,0a.06.06,0,0,1,.06,0c.84.36,1.51,2.63-.16,3.22-.47-.84,1-2.42-1.6-2.1-.19.72.67.42.69,1l-2-.4c0-.56-.26-1.26.16-1.56C67,321.21,66.8,321.63,67.45,321.77Zm-2.63-35.54-.91-1.11,1.11.68c-.25-.7,1.22-2-1.16-1.82,1.08-.16,2.57-1.16,1.66-2C67.1,283.51,68.23,284.76,64.82,286.23Zm-.51-46.52,2-.18-2.37.75Zm.31,32.37s.06,0,.06.07l-.06-.07a2.23,2.23,0,0,0-1.65.66c-1.71.88,2.06,2.65-1.41,3-.49-1.4,0-4.37,1.52-5.38Zm-10.76-66,1.1.41-1.47,1.29Zm3.81-19.67,1.48-1-.58,1.84,1.54.4c.26,1.26-1.93.45-2.56,1.17C56.86,187.86,59.42,186.68,57.67,186.43Zm.31-9.18,0-.56c.3-.34.19-1.12.3-1.78l-.15-.06a1.49,1.49,0,0,1,.21-.22c.18-.57.64-1,1.94-.66-.16,1.43-1.14,0-1.94.66a1.4,1.4,0,0,0-.06.28c.55.34-.67,1.22.55,1.2.6-.14,1.55-.05,1.36-.67l-.51-.19h.42a1.13,1.13,0,0,1,.09.2l.58.21C59.46,176.52,59.47,176.8,58,177.25Zm2.24-3.85,0-1.12-1.28.58c.22-.14,1.48-1.29,2.58-.6Zm6.87,4,.46.27,0,.85ZM73,157.14c-1.53-.12-1.09-.12-1.12-1C73,156,73.43,156.29,73,157.14ZM70.87,139.8c.47.84,1.15,1.53-.12,2.4C71.36,141.48,68.92,140,70.87,139.8Zm-1.61,8.91c.69,1.24.52,2.23,2,3.18a2.33,2.33,0,0,1,.67-.4l-.63.43,0,0a2.71,2.71,0,0,0-1,1.32c.44.27.84-.58,1.08.12-1.48,1,.94,2-1.61,3.13-.41-.07-.57-.32-.79-.46l-.55-.08A.65.65,0,0,1,69,156l1.21.17-.32-2.68c-1.29.59-1.54-.67-2.43-.94l1.49-.73C67,151.71,68.86,149.56,69.26,148.71Zm-1.74,9.07,1-.45v.28c.65.13,1.29,0,1.49-.73l.26,1.27c-1.4.41-1.36-.92-2.75-.37l-.3.14Zm-1.44,4.39.81-1.43,1.33.54C68.49,162.55,66.08,161.88,66.08,162.17Zm3-1.47c-1.3,0-1.35-1.1-.73-1.82.89.27,2.59-.6,2.83.1ZM71,171.85c1.09.12,1.52-.17,1.06-.72,1-1,.24.7,1.52-.17-.41.85-2.13,1.16-.8,2Zm2.91,1.76-.87-.27,1.72-.6Zm5.36-1c-2.07.44-.18,1-.73,2.46a13.11,13.11,0,0,0-2.69-2.21l1.08-.15c.3-.65,1.61-.19,2.34-.1l.48-.09C79.69,172.64,79.51,172.65,79.26,172.62Zm6.37-9.9-.82,1.14,0-.84ZM84,170.88a.53.53,0,0,1,.25.59,1.51,1.51,0,0,1-.25-.59c-.46-.28-1.37-.22-1.54-.51C83.71,169.73,83.85,170.31,84,170.88Zm-2.65-1.2c-1,2.69-3.7-.37-5.79,1.93H76l-1.74,0c1.73-.31,2.08-2.29.12-2.4l-.62.71-1.12-1,.66.41c3.66-.77,1.8-4.12,2.41-5.12,1.29-.59,2.2.81,1.57,1.24l1.72-.59-1.28.86C82.38,167.83,76.3,167.93,81.36,169.68Zm-3.31-6.41c.65-.15.62-.71,1.29-.59L78.73,164Zm.12-2.69,1.54.69-2.17.31C78.2,161.43,78,161,78.17,160.58Zm-1.06,2.19c-.08-.18.06-.28.26-.34.15-.24.25-.49.43-.74,1,.6.07.58-.43.74a1.92,1.92,0,0,1-.26.34,1.25,1.25,0,0,0,.31.34h.43c.88.27-.64.16-1.51.17A2.09,2.09,0,0,0,77.11,162.77Zm-1-.18-1.93.74-.3-2.39c-1.51.73-.85.57-2.19,0C75.26,158.51,74.12,162.77,76.07,162.59Zm30.06-55.53c-1.31,0-2.24-1.66-2.24-1.66C105.83,105.23,104.58,106.66,106.13,107.06ZM89.38,147.14c.18-1-.69-1,1.26-1.15C89.77,146,90.47,147.27,89.38,147.14Zm2.23-4.41.78-1.39-.16.06c-.54.23-1-.18-1.54.22,1-1.41.83,0,1.54-.22l.17-.09v0a2.14,2.14,0,0,0,.45-.32c.45.56-1,2.13.92,1.39C93.58,143.12,92.25,142.86,91.61,142.73Zm3.9-.66c-1.07.17-1.74-.24-1.78-1.09C94.2,141.81,95.69,141.09,95.51,142.07Zm-.28-7.17a2.52,2.52,0,0,0,.54,0l.76-.21a1.26,1.26,0,0,1-.76.21c-.91.3-1.5.71-1.12,1.38h.43l-.22.18.87.54c-.42.29-1,1-1.5.73.74-.17.56-.55.18-.9a13,13,0,0,0-2,1.75l.12.59h-.43l.07-.28a6.32,6.32,0,0,0-.66,1.25c-.65-.13-1.56-1.25-2.19-.25.6-1.56.94-4.11,2.21-5a3.88,3.88,0,0,1-1.76-.26c.72-1.15,2.37-.62,3.92-.16l.64-5.61a1.66,1.66,0,0,1-.23.23c-1.82.16-2.71-.07-3.56-.79a.22.22,0,0,1-.16-.14l.16.14c.22.06.48-.29.48-.29l1-.52.48-.78,1.28-1.52a3.51,3.51,0,0,1,1-1.19l-1,1.19c-.32.68-.21,1.22-.73,1.76l.47-.24c.11-.18.44-.37,1.13-.59.88.55.93,1.67,1.18,2.66l1.54.12c-.18,1.26-.5,4.09,1.09,5.9A6,6,0,0,0,95.23,134.9Zm-2.69-2.37c1.11.69.89.55,0,1.13Zm7.23-26.92.41-.57,1.95-.17Zm1.74,22c.09.1.09.25,0,.52a.67.67,0,0,1,0-.52c-.19-.2-.77-.12-1.36-.3,4.14.63-.56-2.82,3.36-2.59l3.11,1.64C106.93,129.31,102.15,126.63,101.51,127.66Zm78.23-88.8a1.49,1.49,0,0,1,1.52.11c.23.89-1.19-.13-1.94.17l-.22.15a.54.54,0,0,1,.22-.15ZM163.2,55.35l.7,1.26,1.06-.72c-.83,1.14.35,3.52-2,4C165,57.86,162.85,57.61,163.2,55.35Zm-7.51-4.56.15-.54c.16.2,0,.38-.15.54l-.15.54c.52.19.9.55,1.26.31-.84.85-1.31,0-2.18,0l.58-.39C155.26,51.11,155.5,51,155.69,50.79ZM140.13,60.1l0,.84-.66.16ZM125.35,76l-1.24,1.43c-.67-.41-1.34-.83-.48-1.12A1.63,1.63,0,0,1,125.35,76Zm-2.56,18c-.43-.13-.51-.28-.39-.44.16-.37,1.36-.76,1.19-1.27-.3,0-.52-.33-.91-.43l-.63,0a1,1,0,0,1,.63,0l2.63-.16c-.14.75-2.52,1.37-2.91,1.86C122.34,93.66,122.42,93.8,122.79,94Zm.31-20.18.27,1.26-.92-1.11Zm.69,6.76c-.18,1-2.15.31-1.46,1.57l-.88-.54Zm-8.39,24.83-2.13,1.16c2.39-.18-.57,2.12.77,3l1.47-1-.15,1.56c0-.28-.88-.55-2.18,0,.63-1-2.64-1.09-.26-1.55l-1.35-.2a.59.59,0,0,1-.4,0l.4,0c.75-.11,1.75-1.2.83-1.76-.63.43-3.68.2-2.12,1.43-.87-.26-.27-1.26-.28-1.82l.67.41c3.46-.34-.3-1.83,1.19-2.84l.89.55c1.71-.87-.72-1.82-2.23-1.38.19-.7,1.73-.31,2.39-.17.85-.3,1.68-1.44.15-1.56l-.4.57c-2-1.8-.17-4.23-1.71-4.91,1.94-.45,2.85.66,4.16.92,1-1.28-.93-1.39,1-1.85L115.73,97l1.08-.15c.26.7-.17,1.27-.36,2l1.43,0a5.47,5.47,0,0,0,.25-1.7l.5,1.69h-.75C117.17,101.33,115.18,104.1,115.4,105.36Zm1.78-10.76h0c-.13,0-.1,0,0,0l2.34-.74C119.73,94.88,117.66,94.66,117.18,94.6ZM119,88.86c-.39.37-.53,1-1.2.37.25-.36.79-.33,1.2-.37a.73.73,0,0,1,.51-.22C119.46,88.8,119.27,88.84,119,88.86ZM122,84.08c1.08-.15,2.24,1.66,1.17,2.1-.64.15-1.09-.12-1.53-.11.42-.29.84-.86.39-1.42l-.86.13c-.27.29-.59.48-1.31.19l1.31-.19A2.13,2.13,0,0,1,122,84.08Zm-1.32,10.75c.41-.57-.91-1.11.37-1.42C121.69,93.82,120.85,94.4,120.65,94.83Zm.78-8c1.92-.74,1.13,1.53,2.43,1.23a1,1,0,0,0-.82,1.14l1.28-.31-1,1.57h.43l-1.06.72c-.23-.42.2-.71.17-1.28-.21.15-1.09-.12-1.29.31l.3-3.39Zm.21,16.92c1.25-1.43,2.86.94,4.32-.63l.27,1.83C124.72,104.78,121.49,105.54,121.64,103.7Zm4.94-18.42a3.66,3.66,0,0,1,1.94-.46,1.11,1.11,0,0,0-.45.3h0l-.06,0c-.28.39-.06.92.76,1.22-1.48,1.3-.89-.27-2.39-.1L128,85.15l0,0Zm3.11,7.43.91,1.11.43-.29-1.9,1.58c.8-1.7-1.81-1.94-2.28-3.06l1.68-1.16c-2.83-.37.56-2.4-2.07-2.93,1.33.26,2.34-1.59,3-.32-1.71.58.74,2.38-1.68,1.72.45.55,2.21,1.08,2.62.23.72,1.82-3,.9-2.48,3.15,1.53.39,1.48-1,3.22-.76C131.25,93.39,129.64,91.58,129.69,92.71Zm3.17-7.95c-1.05,1,.9.83.48,1.12l-2.38.18c.63-.72,1.89-1.59,1.88-1.87,2.21.53,1.48-1,3-1.46C136.53,84,133.93,84.32,132.86,84.76Zm-2-5.62L132.6,78l0,1,1.3-.14-1.3.31V79Zm2.79-6.53.18-1a1.42,1.42,0,0,0-1.31-.85l0,0a.69.69,0,0,1-.25,0,11.58,11.58,0,0,0-3,.79c-.49-1.4.81-1.7,2.3-2.44-.17.64,0,1.49.68,1.65h.28c1.42-1.28.13-1.82,2.27-2.41l2.06,1.73a2.27,2.27,0,0,1,.63.2l-.22.15-.41-.35C135.39,69.87,134.82,71.84,133.7,72.61Zm2.9,7.85,1.53.12-1.49,1Zm1.54,5.91-.47-.85,1.1.13Zm3.62-7.69-.23-.13,1.49-1,.22.14Zm6.89,4-.22-.13,1.47-1,.24.14ZM150,79.13c-1.51.45-1.13-1-2.85-.66-.63.72.51,2.25-.11,3,1-3-5-4.72-2.69-8l-.42.28c-.1-2.53,1.09-5.38-.75-7.89-.65-.4-1.49-.07-2.17,0l-.37.56-.18-.54a.65.65,0,0,1-.55-.43c2.54-1.73,1.87-2.43,3.92-5.56.45.28,1.12,1,1.54.68-.17,1-2.28,2.43-.31,3.11,1.41.88,1.66,0,2.25-.79,0-.2.19-.39.52-.53a2.18,2.18,0,0,0-.52.53c-.07.42.49.84,1.23.73l-4.09,1.06c.23.42-.4,1.13.68,1l2.14-1.16c-.39,1.14.54,2.81-.51,3.82,1.62-.3,1.68-1.06,2.57-1.51a.48.48,0,0,1,.19-.09l-.19.09c-.5.33-.73,1.41,0,1.46a1.71,1.71,0,0,1,.27-.14l-.21.14h-.06a1.94,1.94,0,0,0-.56.49l-.16.93-.34,0a2.54,2.54,0,0,1-.34.49l1.3-.3-1.06.72h0l.45-.31,1.07-.44-1.49.77a2,2,0,0,0,.86.32l.42-.09a.62.62,0,0,1-.42.09c-1.82.56,2.45,1.92-.78,3l1.51-.45c.9.83-1,2.13,1.39,2.23C149.66,76.45,150,78.56,150,79.13Zm.32-15.25.36-1.7.67.41Zm3-10.77c1.12.69,0,.85-.57,1.85A1.05,1.05,0,0,1,153.33,53.11Zm2,.11c.86-.29,1.08.12,2,.11-2.79,1,2.06,2.65-.5,4.1l-.67-.69c-2.83-.1,1.19,2.94-2.06,2.86l1.75.53-1.22,2C150.12,59.94,155.4,56,155.3,53.22Zm1.28,22.28c-1.14-1.54-.12-3.39-1.92-4.77,1.07-.44-.94-2,1-1.29l.25,1,2-.18.56,3.1C155.17,72.7,159.38,74.74,156.58,75.5Zm5.76-9.91c.35,0,.6,0,.61.07a1.65,1.65,0,0,1-.61-.07,7,7,0,0,0-2.42.68C159.52,64.7,161.28,65.35,162.34,65.59Zm2.73,3.55c-2.43-1,.85-.58-.5-1.69l1.07-.44.05,1.41.21-.14Zm-.56-3.38c.23.14,1.24-1.71,3.44-.9C166,64.47,166.05,66.16,164.51,65.76Zm8.85,1.35-.52.5c-.24-.71-2.61.32-1.56-1,.7.44,1.4.87,2.08.47l.52-.51A1.91,1.91,0,0,1,173.36,67.11ZM177.15,45c2.11-1.45-1.21-2.95.47-4.38l1.23,3.79C178.65,44.8,177.38,45.67,177.15,45Zm.36,4.08,1.24-1.71a1,1,0,0,0,1.09.12Zm4-4.43,1.32.25-2,.46Zm1.94,5.61c-2.33,1.59.84-.87-1.76-.82,2.57-.89-1.6-2.09.37-1.7,1.3,0,1.12,1,.71,1.54a1,1,0,0,0,.87,0Zm24.49-14.38-1.53-.11,0-.56Zm-3.51,5,.66-.09a1.33,1.33,0,0,1,1.5-.23l-1.5.23a2.41,2.41,0,0,0-.37.46c.22.49-.28.86-.85,1.35a1.9,1.9,0,0,1-.44.41c.14-.15.3-.28.44-.41a10.84,10.84,0,0,0,.85-1.35A1.21,1.21,0,0,0,204.4,40.85Zm-3.73-6.71c-.6,1.56,1.32.26,1.78,1.1L201.21,37l-.06-1.69a1,1,0,0,0-.87,0Zm-3.19,8.53c1.29-.31.18-.71.4-.86l1.52.12c.6,1.08-2,1.59-.68,2.13h.12l0,.07c.2.06.47.13.82.2-1.05.72-.77,2.27-1.85,2.71-.68-1.23,1.78-1.84,1-2.91l-.17-.06-2.26.17,1.28-.59a1.6,1.6,0,0,1-1.6-1.8Zm-3.35,7.8c-1.61-2.09,2.55-1.45,3.18-1.89L195,51l-.54-.33-.14.77-.9-.83.77-.11Zm-6.71,6.6-.22-.14.39-1.14Zm1.89-18.94c.68.21,1.39,1.09,2.38,1.41.14-.21.37-.25.94.09a2.24,2.24,0,0,1-.94-.09c-.19.27-.18.85-.55,1.1.79-2-3-.23-3.11-1.64C189.79,39.53,188.87,37.86,189.31,38.13Zm3.31,13.93c-.61,1-1.92.73-2.31,1.87l-2.23-1.38C189.38,52.53,191.35,52.92,192.62,52.06Zm1.56,11.1-.47-.83,1.76.53ZM196.84,59c0-.56,0-.85.62-1C199.22,58.57,197.05,58.6,196.84,59Zm2.76-1.59c.18-1.28-2.61-.24-4.14-.36-1.48,1-.37,1.7-.77,2.55L196,59c-.61,1.29-2.59.61-2.8.76l.55-1.46a3.38,3.38,0,0,1-.83,1c-.21-.13-.67-.69-1.32-.54l.3,2.11c-1.79-1.38-.57-3.65-1.07-5.34a3.28,3.28,0,0,0-1,0l-.31.26a.49.49,0,0,1,.31-.26l1.58-1.33.08,1.69L194,54.57l-.9-.83c.56-1.39,1.73-.25,2.45-.05a.36.36,0,0,0,0-.14,2,2,0,0,1,.36.13c.11-.06.19-.21.22-.47a1.84,1.84,0,0,1-.42-.08h.43a.22.22,0,0,1,0,.08,3.33,3.33,0,0,0,1.33-.15l0-.25a1,1,0,0,1,.3.12.78.78,0,0,0,.51-.69,1,1,0,0,0-.88,0l.39-1.13c3.71.64.79,3.22,2.14,4.89a1.7,1.7,0,0,0,.46-.57Zm7.6.87-1.26,1.15c-1.74,0-1.16-2.1-3.11-1.93.84,0,1.23-.07,1.63-.05l-.07-.12.85.26c.8-.85-.08-1.4-1.37-1.37a1.89,1.89,0,0,1,1.49-.74c-.06-1.4-4.83-1-3.36-2.62l.85-.58c-.14-.42-.89-.52-1.29-.54h0c-.35,0-.24,0,0,0,1.09-.16,2.79-.2,3-1.18l-2-.1c2.27-1,.38-2.24.25-3.08l-1,.39c-.26-1-1.79-1.38-1-3.08,1.93-.74.49,1.4,2.42.66-.9-1.11,1.51-.44,2.15-.6a1,1,0,0,0-.91-1.11l2.33-1.59,0,.56a14.11,14.11,0,0,0,3.83-2.32l-1,3.27a2.08,2.08,0,0,0,1.07-.45c-1.47,1.62-3.61,2.54-5.94,3.46a1.54,1.54,0,0,0,.38,0l.22-.14-.38,1.13,1.5-.16c-2.37.74-.51,3.53-1.82,3.55l.79,3.52c-1,1.57,2.46,2.07.12,3.1a3.6,3.6,0,0,0,.82.38.69.69,0,0,0,.3-.55c.23.42.88.26,1.31.26l-1.22.42A2.59,2.59,0,0,1,207.2,58.31ZM210,38.79l.67.41-.19.7ZM207,50.18c-.91.56.64.87-1.57,1.23-.63-.88.37-1.68.52-2.46l0-.22a.83.83,0,0,1,0,.22l-.12,1.33a3.68,3.68,0,0,1,1.17-.1,5.93,5.93,0,0,1,1.41-.51C208.2,50.18,207.63,50.19,207,50.18Zm2.73,0c0-.57-1.13-1.25.15-1.56.89.27.7,1,1.57,1.25ZM214.44,36h0l0,1.11c-1.92,1-2.4-.38-4.57-.07-1.1-.69.18-1,0-1.41,1.11,1,2.81-.18,3.08,1.08a3.64,3.64,0,0,0,1.49-.71v0h0c.72-.8-1.51-1.45,1-2.7l-.64.43c.47.84,1.54.4,2.85.66C217.45,35.42,215.78,36.85,214.44,36Zm11.75,8.78c-2.71-2.63.62-4.22-.59-7.56l-.2.17c.66-2.54-1.76-1.65-2.44-3.32,1.55-2.06,1.79,1.31,3.32-.07C226.54,37.58,227.66,41.25,226.19,44.82Zm103,5.17-.13.49.19.92h-.43l.24-.92-.07-.35a.84.84,0,0,1-.39.1l-.48.2a1.19,1.19,0,0,1,.48-.2ZM329,53.6a.7.7,0,0,0,.17-.09v0a2.75,2.75,0,0,0,.45-.33c.45.57-1,2.14.92,1.4-.18.71-1.51.45-2.15.32l.78-1.39-.16.05c-.54.24-1-.17-1.54.22C328.43,52.41,328.24,53.79,329,53.6Zm-1.59,4.6c-.87,0-.17,1.27-1.26,1.15C326.28,58.36,325.41,58.37,327.36,58.2ZM311,57.36l1.51.28-1.32,2.17ZM315,60c-.22,1-1.78.37-1.22,1.66.37,0,.73,0,.68-.34,2.34,2-1.53,2-1.81,3.82-.88-1,1.49-2.34.55-3.62-.57-.15-.79.84-1.41.37.68-.35,1.11-1.19,1.69-1L312.17,60C312.39,59,313.94,60.72,315,60Zm-3.18-7.61c-.43.83,1.13,1.44,2,1.26l-1.41.36c.67.79-1.17,2,.19,2.45l.16-.17c.78.31,0,.33.09.66-.51-1-2.4-.1-2.07-1.59C309.5,54.46,310.4,53.12,311.77,52.43ZM285.15,57.6l1-1,.62.48Zm10.72-4.53-.64.15a1.36,1.36,0,0,0,.24-.13c-1.94.21,0,1.71-.81,2.26,1.27-.87.88.26,1.34.82-1.26-.52-2.65.62-3.13,1.47l.12.12,2.19-.17,0-.85.72,2.11A2.94,2.94,0,0,1,293,57.76h-.19l.07-.13-.31-.29-1.68,1.44c-1.64-.4-.16-1.63-.4-2.45a1.16,1.16,0,0,1-1-.63c.67.13.94.36,1,.63,1.24.12,2.91-.88,1.77-1.38-.65-.13-1.09-.12-1.5.44l.61-1.28-1.52.17c-.42.07-.73-.36-.94-1-.63.13-1.37.22-.91,1.24l1.11,0-.74,0c1.29.24.8,1,1,1.53l.19.25a.5.5,0,0,1-.19-.25c-1.05-1.28-1.47.7-2.73-.82,1.94-.55.73-2.34,1.75-3,0,.38.13.48.35.47a10.18,10.18,0,0,1-.16-2.76c.09,0,.15-.09.21-.2-.46-.73-.13-1.11.33-1.46a5.92,5.92,0,0,1,1-2.88c3.05.23-1,1.85,1.81,2,.21-.15.64-.44.42-.58h-.44l1.49-.73c-.63.72-1.24,1.71-.14,2.12l.24-.12-.07-.07-.18.17-.42-1c1.14.62,2.7-.56,2.85,1.38l.17-.15-.17.17v0c-.29.23-.64.47-.7.77l.06.24c.6-.3.94.64,1.35,1.21l.23,0-.11.13a.59.59,0,0,0,.43.25,1.76,1.76,0,0,1-.69.21c-.22.63-.1,1.25-.81,1.7Zm7.76,2.7c.32-.34.32-.34.68-.36l-.24-1.63.91,2.43C304.25,56.24,303.73,56.42,303.63,55.77Zm4.08-15.55.12-.1c-.07-.32,0-.56-.14-.71l-.24-.12a.49.49,0,0,1,.24.12l.71.34a2.3,2.3,0,0,0-.57.37s0,.09.05.14l-.17,0c-1,.9-2.13,2.63-4.06,3.08-.41-.64,2.1-1.68.76-2.48C304.64,38.61,306.27,39.86,307.71,40.22Zm-4.63-3.07.39,1.09c.33.34.64.69.35,1l-.35-1C303.07,37.84,302.63,37.46,303.08,37.15Zm.47,1.4-.87.84-1-.79Zm-.67,10.31.9.55-2.32,2.16Zm.32,2.68-1,2.13h.44c-.23-.14-1,2.13-1.84,3.28l1.53.11-1.25,1.43c-.25-1-.9-.55-1.75-.25l-.24-.7C301.63,55.79,299.77,52.72,303.2,51.54Zm-4.86-7.95h.37l-.49,1.16Zm-2.59.59c1.28-.59-.07-1.69.35-2C297.85,42.17,297,43.87,295.75,44.18Zm-5.91-1.46a1.47,1.47,0,0,0,1.57.26,1.56,1.56,0,0,1,1.06-.36c.3-.11.6-.23.88-.32l-.05-.07a1.22,1.22,0,0,0,.54-.76l-1.67-.06,1.49-.73c-3.22,1-.27-1.26-2.26-2.22l2.14-1.16.27,1.83a2.85,2.85,0,0,0,1.34-.18c.29-1.45-1.4-2.82,1.44-3.2-1.25.19.42,1.79.16,2.79-.66-.81-1,0-1.37.36a.49.49,0,0,1,.39.06,3.77,3.77,0,0,0-.51,0l-.13.07a.43.43,0,0,1,0,0c-.56.1-.69.36-.64.67l.1-.12,1,1.46,1-1.34c0,.65-1.36,2,.13,2.3l-1.64.2c-.1,1.48.47,1.63-.9,3.3a2.9,2.9,0,0,0-.09-1.76l-1-.64c-.86.58-.38,1.7-1.92,1.31l2.34-1.6a3.91,3.91,0,0,0-1.06-.18,7.36,7.36,0,0,1-1.06.36c-1,.82-.76,2.71-2.13,2.44.62-.72-1.34-1.11-1.36-1.4Zm-7.74,2.87-1.05.31c-1,.36-2.62.72-3.27.12.86-.29,1.49-1,2.57-1.17l.46,1.12.24-.07a4,4,0,0,0,.84-.37l.21.06.23-.06-.26-1c1.31-.3,1.6,2.09.76,3C280.48,46.57,284.07,46.22,282.1,45.59Zm-4.72-4.22a1.51,1.51,0,0,1,.28.1,2.79,2.79,0,0,0,1.9-.42l-.36,2.27c-1,.15-.37-1.33-1.54-1.85A.85.85,0,0,1,277.38,41.37ZM285,32.69c1.46.31.65,2.3-.46,2.65Zm-.08,16.89c.67.13,1.3-.31,1.53-.17A6.59,6.59,0,0,0,283.88,52c-.24-.7-1.14-1.53-.31-2.11l-1.3-.26,1-1.29C283.35,49.46,284.39,48.17,284.87,49.58Zm-7.11-9.91c-.06-1.41,2.55-1.45,2.52-2.3l2.85.67c-1.52.16-1.25,1.43-1.23,2,.62-1,1.33.54,2,.67-1.51.45-3,.9-3.68.49l-.05-1.41c-.86,0-3.7-.37-4.09.77l-.08-1.7ZM277,42.22a.84.84,0,0,1-1,1.29Zm-17.27,4.12,1.23,2-1.83,0c-.77,2.52.44,1.33.6,4-2.24-.6-.18-3-1.9-4.11C257.89,46.39,259.83,48,259.72,46.34Zm-4.45-6.89c1-1,.08,1.33,1.15,1a1,1,0,0,1,1.33.48l-.85,1.18c-.32-2.16-1.41,1-2.79-.43A4.32,4.32,0,0,0,255.27,39.45ZM251.56,48l.58.49-1,1Zm-8,4.06c-.14.84.64,2-.27,2.18A1.38,1.38,0,0,1,243.54,52.1Zm-5.09-11.27-.86,1.2.75,0c-.09,1.84-1.86-.29-2.56.39a7.76,7.76,0,0,1-2.94-3.12l-.35.35c0-.34,1.35-2.05-.64-1.5l1.65-.88c-.73,1.7.79,1.33,1.19,2.33.54-.18.34-.68.51-.86C236.1,38.54,236.26,41.22,238.45,40.83Zm-4.95-8.45c.55.15.16.84.32,1.33l2.42-.89c.7,1-.94.87-1.52,1.38-.78,1.36,1.64.47,1.63.81l-1.5.37-.68-1.33c-.94.52.47,2.17-1,2.2C233.41,34.73,234,33.88,233.5,32.38Z"/><path class="a" d="M99.16,302.1a6.19,6.19,0,0,0,2,3l.24-.12-.22.15,0,0c-3.2,1.65.56,4.85-2.11,6.68l1.34,1.12-2.32,1.58c-.22-.13-.46-.55-1.11-.4l-.16,1.27,1.51-.16c-2.15.59-1,1.84-2.53,2l1.56,1c-4.77.36.53,2.54-1.58,4,3,.52,1.85-2.43,4.44-3-.44,0-1.09-.12-1.3,0-1.11-.4.76-2.55,1.76-5,0,.58.93,1.68.55,2.82l1.5-.44c.93,1.67-.06,4.09,0,5.78a1.14,1.14,0,0,1,1.36-.23c.3-.08.63-.16,1-.23-.3.49-.63.36-1,.23-3.34.91-1.37,2.19-4.71,3.67,1.53.12,3.13,2.21,1.67,3.5l1.53.12c-.41.85.24,1-.83,1.42l.89.36c.2-.18.36-.19.44.18l-.44-.18c-.42.37-1,1.47-1.61,1.54.55.24.55,1.18,1.49,1.05s-.06-1.41,1.68-1.44c1.34.83-1.71.59-.38,1.42h.43l-1.31,0c.67.42-.58,1.28,1.16,1.53l-1.73.32c1.53.11.3,2.11,2.66,1.36l-.38,1.43c4.13.07-.32-2.68,2.47-3.43-2-.4-.9-.84-2-1.52l.44.27c1.73,0,1.26-1.15,1.67-1.72l.45.28c2.17,0,.83-1.15,1.45-1.86-1.31,0-1.95.17-1.27.86-1.48,1.3-2.67-1.64-3,.33l0-1.12c1.32.26,2.34-1.31,4.1-.77-.9-1.12,1.51-.45.59-1.56-1.93.74,0-1.14-2-1,.38-1.7,2.68-3.57,4.8-5.3-1.1-1.8-.48-3-.13-4.27l-.07.07c0-.57-1.73,0-.89-.83-.28.58.73.28,1.06.36a2.88,2.88,0,0,0,0-1.4l-.43.3c.4-1.14,2.53-2.3,1.19-3.13l-.42.29c-1.19-2.66,3.9-.35,3.18-2.17l1.55.68c0-.84,1.25-.87,2.13-.87h0c-.32-.21-.13-.49,0-.72v-.34a.8.8,0,0,0-.29-.06,1,1,0,0,1-.4.15l.21-.15h.19a.94.94,0,0,0,.29-.27v-6.27c-.45.38.06-.9-1.41-.64.3-.42,1-.31,1.41-.06v-5.3a4,4,0,0,0-.51.12,2.91,2.91,0,0,1,.51-.62v-2.94a1,1,0,0,1-.45.35l-2-.68c.43-.28,1.07-.44.84-.86a1.5,1.5,0,0,1,1.6.45v-5.48a3.85,3.85,0,0,1-.54.31,7.06,7.06,0,0,1-2.49,1.36c-2-.39,0-1.12-1.6-2.09l1.34.82c.41-.29,1.06-.44.83-.85a1.52,1.52,0,0,0-.65.14l-.27-1.54-3.26.19c1.51-.45,2.07-2.85.1-3a3.11,3.11,0,0,0-1.5.44,5.28,5.28,0,0,0-.06-1.59A68.21,68.21,0,0,0,100,284.72l.14.26.21-.15a2.6,2.6,0,0,1,.1.25l.14-.14a.45.45,0,0,1-.13.17c.55,1.79-1.42,4.08.45,5.34.3-.09.52-.09.54.29a3,3,0,0,1-.54-.29c-.59.19-1.47.79-1.66-.24-1.27.87-.79,2.27.12,3.11-.88-.28-1.53.16-2.64-.81,0,.84-.17,1.28,1.58,1.53a.64.64,0,0,1,.4.21l.06-.24,1.76.53.6-1.28c-.59,1.56,1.33.54-.36,1.7.45.56,1.08-.16,1.73,0l-.84.58c.7,1.26,1.95.11,3-.33.69,1,1.39,2.23.76,2.95a9.81,9.81,0,0,1-2.81-.09l-.4,1.12c.44,0,.66.13.65-.14,1.11.68-3.15,3.29.52,2.25-.64.43-3,1.17-4.33.35a1.9,1.9,0,0,0,0,.4l.18,0ZM119,306.23c.25,1-.45,0-.83,1.15C116.89,307.12,118.82,306.66,119,306.23Zm-17.19-16.54-.38.47a.8.8,0,0,1,.38-.47l.65-.83,1.11.69C103.63,289.78,102.5,289.3,101.85,289.69Zm4.09,10.16c0-.15,0-.27,0-.32a.42.42,0,0,1,0,.32c.06.34.17.85-.58,1C104.57,299.63,105.72,300.24,105.94,299.85Zm.59,4.22c.71,1.25-.39.85-1,2.12l-1-2.24Zm-2.08,2.28-.85.59-.67-.7Zm-1.24,1.72c.84-.86,3-1.74,4.12-.49,3.19,3.9-4.12.49-4.46,2.75l-.33-2.68Z"/><path class="a" d="M79.74,188.6q.7-3.15,1.52-6.24a4.14,4.14,0,0,1-1.35-1c.22,1.06.29,2.83-1.88,3,.66.41,1.12,1,1.76.81C77,186.37,79.77,187.84,79.74,188.6Z"/><path class="a" d="M291.87,52.86a.8.8,0,0,0,.27,1.08C291.82,53.71,291.83,53.3,291.87,52.86Z"/><path class="a" d="M316.23,69a.62.62,0,0,1,.08.47q4.21,1.88,8.37,4l0-.49,0,0,0-.07-.05-1.26.56.18.31-.67s.06.13.24.19c.38-1.25.24-2.8-1.44-2.65,2-.45,2.85.38,4.56-.22,1.21-2.55-2.6,0-2.48-2.35l-1.91,1.29.62-.71-1.3,0c.21-.42,1.29-.58,1-1.29-.84.58-1.32-.54-2.2-.8l-.2.42-2.19-.53c-2.77,1.6,2.63.81.71,1.83a2.45,2.45,0,0,0,1.84,0,1.9,1.9,0,0,1,.33-.29,1.3,1.3,0,0,1-.33.29,5.37,5.37,0,0,1-.72.71c-.25-.7-1.3,0-1.57-1-.19.42-.81,1.42-.14,1.83.05,1.11-1.55,1-2.27.9l-.07.13c-.46-.18-.32-.16.07-.13.2-.36.53-.63.32-1-1.35-1.11-1.05,1-2-.67-1,.55-1,.86-.75,1.16a1,1,0,0,0,.22-.43A1.62,1.62,0,0,1,316.23,69Z"/><path class="a" d="M199.1,61.57l.37.29a3.11,3.11,0,0,0,.47-.57l-.8.23Z"/><path class="a" d="M94.91,335.61l-.46.4C94.81,336,94.88,335.85,94.91,335.61Z"/><path class="a" d="M204.53,45.37c-.44.07-.61.29-.58.54Z"/><path class="a" d="M94.46,128l.2-1.81-1.13.59C93.27,127.17,94.11,127.51,94.46,128Z"/><path class="a" d="M197.33,56.07c.41-.86,2.59-.89,2.11-1.73a10.54,10.54,0,0,0-1,.33c-.05.39-.23.67-1.05.55V55a1.22,1.22,0,0,1-.93-.07l.06,1.7-1.31-.27-.28.3c1.55,0,3.9.23,5-.65Z"/><path class="a" d="M111.88,339l-.09.06.09.21Z"/><path class="a" d="M418.56,454.05v0l0,0Z"/><path class="a" d="M335.66,72.9a1.61,1.61,0,0,0,.51-.17Z"/><path class="a" d="M407.9,120.92a2.2,2.2,0,0,0-.29-.44C407.6,120.79,407.71,120.9,407.9,120.92Z"/><path class="a" d="M421,230.65c0,.28.09.55.14.81C421.29,231.17,421.4,230.81,421,230.65Z"/><path class="a" d="M391,317.1h-.06l.06.08Z"/><path class="a" d="M405,463.41a4.42,4.42,0,0,0,.92.6,60.51,60.51,0,0,0,14.22-7.94c-.66-1.95-2.14-4.24-2.45-6.57l1.71.58,0-1.47c.16,1.8,1.35.6.42,1.95.62.64.84-.2,1.44-.06l-.46.67c1.12,1.44-2.44.1-1.72-.42a14.19,14.19,0,0,1,1.34,1.69,65.12,65.12,0,0,0,10.25-12.07c0-.11,0-.21,0-.32l-1.08.05c1.91-.25-.34-1.14,0-1.65l1.08-.05c.19.33.39.69.59,1.08,1.91-2.88,3.49-4.14,7.61-3.1a17.37,17.37,0,0,0,4.64.55.87.87,0,0,0,.09-.59,4.69,4.69,0,0,1,1.46.48,12.87,12.87,0,0,0,6.67-2.87c-.37-.23-.74-.43-1-.58,2.18-.1-.56-2.47,1.92-1.91a4.74,4.74,0,0,1,1.13.34,17.38,17.38,0,0,0,3.35-9c0-.36.06-.72.08-1.09a1.65,1.65,0,0,1-.43.08l.36,0-1.11.71a9.22,9.22,0,0,1-1.52-3.4c3-.32-1.44-3.6.73-3.7,1.67.75.16,2.15,1.93,2.73.05.14.1.28.16.41,0-.54,0-1.09,0-1.63V383.61c-.49-.53-.76-1.77-1.55-.69-1.35-1.43-.53-3.14-1.1-4.1,2,.22,1.15,1.93,1.8,2.73.38-.42.61-.23.85,0v-4l-.44.31.17-.34.27-.12c0-1.94,0-3.88,0-5.81a17.06,17.06,0,0,0-2.32,3.27l-.45-1c-.11.81-2.09,1.35-2.54.39,1.46,0,1.12-1.8,2.23-1.83-.12.8-1.11,0-.29,1,.73,0,1.13-1.81.79-1.47.48-1.44-.4-1.22-1.23-.8a6.33,6.33,0,0,1-1,.62c-.15.1-.21.14-.15.08l.15-.08c.21-.14.61-.4,1-.62,1.37-1,.84-1.93.84-3.4.76-.83,1.61-.2,2.4.1.93-1-.91-.94.5-1.31-.18.4-.12.66.07.83q0-38.36,0-76.7c-.46.43.1,1.36-.67,1.67.14-.84,1.08-3-1-3.09l1.66-.35v-3c-.51.05-1,.28-1.07-.68.05.39-1.5-.16-1.95.05l-.06.38c-.11-.22-.06-.33.06-.38l.08-.45c1.31.76.36-3,2.12-2.42l.74,1.12c-.62-.13-1.2-.93-1.66-.74.95.55,1.1,1.81,1.74,2.65q0-19.55,0-39.08c0-1.75.38-3.67-.21-5.21a8.74,8.74,0,0,0-1.86-2.9l-1.35.08-.19-.33,1.52.24a3.62,3.62,0,0,0-1.47-1c-10-2.94-5.85-2.84-6.08-13.32a3.17,3.17,0,0,1-.85-.94l.83.05c0-.16,0-.33,0-.49-1-1.07-1.9-2.45-1.56-3.17l-1-.11.24-2c.24-.11,1.31.87,2.18,1.34,0-.35,0-.69-.05-1-.39-.42-.6-1-.09-.92l.05,0q-.56-10.89-2.14-21.5c-.25,0-.43-.13-.37-.58a.47.47,0,0,0,.34.4,191.29,191.29,0,0,0-8.48-34.58c-.61.07-1,.61-1.91-.2l-.27-2.13a10.1,10.1,0,0,1,2.08,2A176.57,176.57,0,0,0,429,141.75c-.16.33-.33.63-.48.88a4.53,4.53,0,0,1-.38-1.78l-1.28.39c-.8-1.8-1.28-3.25-.39-4.51q-3.13-5.94-6.75-11.7l-.26,0c0-.14,0-.28,0-.43-.7-1.11-1.42-2.22-2.15-3.32-1.06-1.6-2.14-3.17-3.22-4.72-1.3.76-3.33,1.37-3.77,2.85.9.83,1.91-1,1.74,0-1.08.16-.39,1.42-.79,2.27a5,5,0,0,1-1.23-.06c.11.58.43,1.25-.86.83s-1-.74-1.24-1.36a4.71,4.71,0,0,0-1.1-.13l.08.13-.16-.12a2.28,2.28,0,0,0-.51.09l1.79,1.1c-2.59.61.9,1.11-1.45,1.85l1.15,0-.28-.56a1.12,1.12,0,0,1,1.17.58l.35,0-.34,0a4.6,4.6,0,0,1,.27.47l-1-.11-.15-.31c-1.2.31-1.23,1.5-1.58,1.28l.4-1.13c-1.12-.69-3.24.48-3.72-.37.19-.7,1.92-1.3,3-1.45l-.49-1.13c-.23.17-.9.16-1.31.3-.24.23-.35.46-.17.71-.29-.41-.13-.61.17-.71a16.28,16.28,0,0,0,1.74-1.39l-.54-.4c.11-.16.08-.65.58-.35l.18.27a.92.92,0,0,0-.08-.55l-1.75-.25c1.74,0,3.22-1.33,3-2.31l-2.35,1c.18-1,1.87-2.15,1.86-2.72,4.55.07-.08,3.81,3.17,3.62,1.06-.72,1-2.41,1.41-3a5.44,5.44,0,0,0-1.61-.66,3.61,3.61,0,0,1-.8.28c.09-.3.41-.35.8-.28a5.24,5.24,0,0,0,2.05-1.74q-3.42-4.75-7-9.26c.18,1.22-1.47,2.06-2.11,1.93-.49-1.41,1.66-2,.08-3.53l.71-.07A231.78,231.78,0,0,0,383.9,80.68l-.27.33-.23-.81a193.91,193.91,0,0,0-35.34-27.12,1.34,1.34,0,0,0-.23.13c.06-.05.05-.14,0-.25-2.9-1.71-5.83-3.35-8.81-4.89-.6,1.7-4.21,1-3.72,2.67,1.76.81,1.67,4.06,2.38,5.88-.37,1.7-.81,1.43-2.51,2.3a4.52,4.52,0,0,1,1.73,3.6,25.37,25.37,0,0,0,2.29,1.19c-.63,1.22-1.75.5-2.3,1a4.84,4.84,0,0,0,2.36,4.48c-4.33-.21-.11,3.23-4,3.87a23.75,23.75,0,0,1-3.45,1.19c.44,0,.65-.15,1.09.12-.63.44-1.49.73-1.47,1.3.65.13,1.07-.45,1.28-.58,1.4.2,0,1,.44,1.21l.69,0a1.42,1.42,0,0,1-.69,0L332,76.19a3.45,3.45,0,0,0-1.19.52l2.53,1.46.81.49c.24-.42,0-.87-1.23-1.36,1.3,0,2.15-.6,3.68-.2-1.66-1.48,2.16-1.06,2.95-1.86L338.3,74l-.94.68c-.23-1.78,1.34-4.44,2.21-4.63,1.19,1.1,2.41-1.54,2.64.24-1,1.17-1.37,2.81-2.9,3.35.6.05.57.49.53,1,1.18.53.8.88.23,1.18l.66.68a1.36,1.36,0,0,1-.75-.64c-.75.38-1.69.68.06,1.17-.23-.14.19-.42.4-.57l0,.84c-1.33-.53-2.57.9-3.92-.21-.85.58,0,.85.91,1.11-1.1-.29-1.94.44-3,.67a193.94,193.94,0,0,1,34.85,26.28c.4-.2,1.31.06,1.76.16a.94.94,0,0,0-.49-1.77l-.12.65c-2.43-2-1.82-4.81-3.39-5.55,1.45-.55,2.66.7,3.87,1,.36-1.48-1.34-1.58.11-2.13l.13,1.3.85-.19a5,5,0,0,1,.49,2.25l1.19,0a8.65,8.65,0,0,0-.47-1.93l1.1,1.91-.63,0c.4,2.86-.18,6,.5,7.46l-.84.89a162.29,162.29,0,0,1,16.66,19.94l.21-.12c.92.11.16.95.71,1.19a1.78,1.78,0,0,1,.42.07.94.94,0,0,1-.42-.07.34.34,0,0,0-.14,0c1.64,2.37,3.22,4.78,4.72,7.23a2.36,2.36,0,0,1,.45-.22l0,1,.51.86.82-.19c-1.38-2,2.73-2.45,4.91-2.2,1.1.41-3,2.31-.1,2.69-.49,2.06-3.67.23-4.64,1.35.21.37.41.74.62,1.1.19,0,.15,0,0,0,.42.73.83,1.47,1.24,2.2l.54-.25-.46.41q2.24,4.05,4.24,8.25c.68-1.39,1.83-3.48,2.64-5.31l-.58-.7c-.23-.13-.33-.27-.33-.41l-.34-.41,1.37-1,0-.05-1,.16c-.17.26-1.54.27,0,0,0,0,0-.1,0-.16l2.93-2.48,1.82,1.36c-.58,1.55-2.67,2-2.41,4l-1.81,1.1c3.94-1.89.32.3,2-.18L407,149.44a4.39,4.39,0,0,0,2.09-.48,1,1,0,0,1-.11.47c.25.15.62.74,1.18.6l.27-.12a.8.8,0,0,1-.27.12,1.57,1.57,0,0,1-1.44,0l-.85.81.47-.75a9.82,9.82,0,0,0-1.62,1.18l1.2,1.83c-.13,1.73-1.63,1.86-2.72,2.44.22.47.43.95.64,1.43h.48l0,1c.45,1,.89,2.1,1.31,3.15a9.43,9.43,0,0,0,1-2.4c.2.79-.41,2.14-.63,3.37.22.55.44,1.1.65,1.65l.82-.09.06,1.4c-.15-.09-.3-.21-.51-.34q10.85,28.6,11.8,62.9a27.54,27.54,0,0,0,.23,2.81l.81-1.06c.86,1.12-1,1.39.82,2l-1.44.24c.75,3.81-1.55,6.91,2.06,9.53a10.7,10.7,0,0,1,3,3.63,1.57,1.57,0,0,1,.5-.1c.43-.19,1.43,2.73,2.48,1.36.48,1.13.34,2.13,1.62,3.05.53-.35,2.16-.11,1.32-1.22-1-.78-2-1.72-1.51-1.91.21,1,.74.62,1.66.91-1.6-1.73-1.43-2.08-2.65-3.18.88-1-1.6-2.39-.1-3.3l1.45.58-1.43.08c0,1.5,3.23,4.8,2.94,6.8,1.19.44,3.18.66,3.3,1.8a4.36,4.36,0,0,0-3.62-.46c.68,1.45,1.93,1,3,1-1.17.22,0,1.5-1.28,1.88.55.31,1.29.93,1,.12.86,2.43,2.14,5.35.44,6.59l-.82-1.77s-.36,0-.45.19c-.4-2.63-1.65-4.22-3-7.13-.88.38-.66,1.36-2.39,1.28-1.3-1.57.8-3-.31-4.28-.63-.12-1.17.23-.78.87a3.12,3.12,0,0,1-.39-.37,4.28,4.28,0,0,1,0,.6c.37,11.07.22,22.15.2,33.23.34-.26.26-1.11.93-1.14-1,.55,1.06,1.27,1.14,1.75-.52.35-1.36-.51-2.07-.55,0,1,0,1.94,0,2.91v5c.79.76,1.5,1.51,1.43,2.06a2.06,2.06,0,0,0-1.43-.42v2.46l.28.48a1.51,1.51,0,0,0-.28,0V298Q425.14,296.5,423,295l-.13,0,0-.05c-5.78-4.07-7-8-12.61-11.21l-.17.11-.48-.48c-2.32-1.3-17.09,1.75-19.56.87-.23.91.17,1.79-1.94,2.28l1.35,1.1c.71,1.54-1.94.46-1.22,2.29,1.08-.17.67.41,1.75.25-.18.71,1.43,3.36-1.36,4.11-.46-.56-.71-1.26.6-1.28a1.29,1.29,0,0,0-.75-.35l.11.41-.27-.16,0-.28a2,2,0,0,0-1.67.42c-.39,1.42-2.53,2.3-.3,3.68-1.08.16-1.29.3-1.48,1,.44,0,.66.13.86-.3l0,1.13h.12a1.46,1.46,0,0,1,.07-.85l.41.72,0,0v.08a24.69,24.69,0,0,0,3.72,5.55c-.05,1.14-2.41.43-1.2,1.84a1.67,1.67,0,0,1,1.73.57c-1.09.06-1.78.58-3-.19-.18-.8-.18-2.43,1.12-2.81l-1.6-.26c.8-1.6-.89-3.1-1.23-4.49-.5.4-1,1.07-.86,1.48a.89.89,0,0,1,.8.36c-.5,0-.73-.14-.8-.36-.79.08-1.44,1.32-1.8.68.75-3.12,1.91-6.81.91-10.18-.09.07-.22.16-.32.25l-.09.33c-.12-.08,0-.21.09-.33l.3-1.09,1.33.82c.33-1.85-.05-2.46-1.91-3.43-.17.21-.28.44-.53.54-1.43-.58-1.17-2.4-.87-2.91l2.05,2a.84.84,0,0,0-.49.17c.57,0,1.17-.21,1.15-.62-.66-.14-1.09.15-1.32-.27a4.19,4.19,0,0,0,1.15-1.67c-1-.83-.53-1.3-.05-1.82a54.32,54.32,0,0,0-12.6-1.3v3.54c1,.85,1.84,3,3.42,3.88-1.26-.27-2.26.93-1.72,1.89a1.07,1.07,0,0,0,.75-.08c0-.1.16-.16.42-.14a1.1,1.1,0,0,0-.42.14c-.17.42,1.06,1.61-.83.91,1.79,2.53,1.25,3.54,1.26,5.51a2.23,2.23,0,0,0,1.44-.65c.11-.26.23-.52.35-.75a1,1,0,0,1-.35.75,2.82,2.82,0,0,1-1.27,1.63c-1-.21-1.14-.57-1.34-1l0,.75-.91-.83.61-.41a2.77,2.77,0,0,0-1-.83l1.23.68h0v0l.37.21c.18-.34.62-.53.18-1,0,0-.35,0-.45.18L372.65,294,372,294c0,7.66,16.51,15.31,16.51,23l.76.47-.76.51v28.33l.23-.15.16.63c1.34.91,0-.79,1.29-.68,1.78,3.28-1.36,3.23-1.35,6.1.37,0,.59.14.64-.34-.21,2.71.83,3.15-.13,5.09a.87.87,0,0,0-.84-.41c0,1.95-8.25,3.9-8.25,5.85a8.29,8.29,0,0,1,1.08.7l1.2-.09a.85.85,0,0,1-1.2.09l-1.08.09v1a.55.55,0,0,0,.37.09l-.37.11v4.78l1.39-.95.45.26-1.48,1-.36-.22c0,17.6-12.7,18.06-8.42,44.49a2,2,0,0,0,.12-2.37l1.33,1.36a1.71,1.71,0,0,1,.4-.13l-.2.34-.2-.21c-1.81.84,3.14,3.6,3,5-1.83-1.06-1.81.08-2.37.44l1.22,2.08c-2.48-.54-1.16,1.37-1.76,2.38-.69-.4-1.07-.69-1.51-.9v10.5c2,1.69,3.55,3.08,1.41,4.8L372,435.84l1.27.76c-.49-.71-.05-2-1.37-2.06v25.74c.2-1,0-2.36,1.08-2.68.47.3,1.05.92,1.54.75-1.6.71-.54,3.9-2.12,4.14.25-.34.75-.52.41-1a2.35,2.35,0,0,1-.91.14v2.14a22.75,22.75,0,0,0,2.9.47,18,18,0,0,0,3.28-.22c4.94-.79,22.17,2.14,26.58.5C404.6,463.83,404.7,463.36,405,463.41Zm52-51.1.28,1.32c-1.18.22.08-1.34-1.46-1.1C455.63,411.71,456.67,412.32,457,412.31Zm-2.78-35.47.76,1.29c-1.32-1.59-.41.86-1.37-.75C453.54,376.88,453.35,376.56,454.26,376.84Zm-1.06,50.94c.3.65,2.16,2.72.75,3.28C452.24,429.32,453.29,428.77,453.2,427.78Zm2.3-62,.4-.81.73,0Zm.27-11.64c-.61.17-.92.36-1,.56l.45.89c.94.76,2.72,1.53,1,2l-1-2c-.38-.31-.62-.61-.45-.89l-.33-.65Zm-1.24-114.81a8.92,8.92,0,0,0,2,.89c1.32,1.58-1.42,2.89.8,4.76-2.19-.55-.68-1.45-3-2.49C457.09,242.69,453.4,240.24,454.53,239.34Zm1,42.51-1.05-.6c-.36,0,.32.64.23.81l-.69-.63C454.46,281.25,455.21,280.55,455.51,281.85ZM454,308.41l.2.43a1.46,1.46,0,0,0,.36.19,1.84,1.84,0,0,0,.69-.19c0-.11.07-.22.11-.28a.29.29,0,0,1-.11.28c-.07.17-.2.32-.57.24l-.12-.05-.24.07-.12-.26c-.21-.15-.24-.29-.2-.43l-.57-1.25C455.1,307.53,454.13,308,454,308.41ZM406.81,112.78c.46.56,1.09.13,1.95.12-.61.71-1.95-.12-1.69,1.15C406.41,113.64,405.74,113.23,406.81,112.78ZM338.08,66.83l.81-.51.16,2.27Zm-1.16,8.29c-1.32-.26-2.64-.8-3.29-.66.85-1.54,2,0,2.91-.09.07-.14.23-.24.55-.24a.85.85,0,0,1-.55.24C336.44,74.6,336.64,74.94,336.92,75.12Zm5.66-12.32a4.58,4.58,0,0,1-1.11-2,3.07,3.07,0,0,1-1.2-.15c.12-.25.48-.36.7-.56l-2.07.2c.59-.15,1.4-.34,2.24-.58a.51.51,0,0,0,0-.2L338.91,59c-.61-2.16,2.84-2.35,3.66-3.84l-.12,0,.17-1.27a1.52,1.52,0,0,1-.05,1.3h0c.07-.26.33-.52.91-.76-.4.27-.22.9-.91.76-.31,1.21,3.3,2.63-1.11,3.51l1,.61a7.14,7.14,0,0,0,1.79-.92L343.45,60l1.1,0C342.4,60.37,344.51,63.39,342.58,62.8Zm8.19,11-1.52.16c-.17,1,1.56.68,1.6,1.53-.83,1.42-1.56-.4-2.43-.67a3.65,3.65,0,0,1,.14.78l.06,0-.05.12c.06.68.09,1.43.38,1.61l1.76.54c-.41.57-1.5.45-2.15.6,3.37.76-.88,1.63,1,2.8l.24.14-.24-.14a3.75,3.75,0,0,0-2.17-.4l-.08.12,1.43,1.14h-.44c-1.15-.13-1.28-.64-1-1.15l-.14-.1.22,0a3,3,0,0,1,1.27-1c-1.56-1.25-1.05,1-2.6.32,1.5-1,1.12-1.84.86-3l-.29-.1a1.43,1.43,0,0,0,.24-.16,4.16,4.16,0,0,1-.09-.73l-2.18,0c.22-.14.86-.29.42-.57l-1.08.16c.19-.71,2.18.25,1.48-1-.47-1.12-2.39-.11-2.41-.39-.27-1.54,3.89-.62,1.45-2.14l-1.29.59c.12-2.69,2.11-1.73,2-4.83.23.7,1.12,1,.93,1.68.63-.44,2.36-.47,1.67-1.44-.44-.28-.86,0-1.52-.12l.63-.43c2.4.11,2.9,1.78,3.84,3.47C347.45,72.27,352.46,72.32,350.77,73.77Zm1.07,5c-.25-.7,1.68-1.15.15-1.55,1.48-1.3.66.13,2.18.25Zm4.85-15.15a20.7,20.7,0,0,1-1.07-2.23l-.17.17-.33-1.09-.18.14.17-.17v0c1.53-1.11.46,2.53,2.88,2.14ZM388.15,96.3c1.53.39-.85.86-1.27,1.15C386,96.33,388.39,97.28,388.15,96.3Zm-.54-2.53-.89-.55c-1.6-2.1,2.55-1.46,3.19-1.89ZM379.31,77l.26,1.09,1.07-.17-1,.36,0-.19-1.42.23Zm-1.5,7.79a.6.6,0,0,0-.29.34h0l0,.05c-.12.44.24,1,1,1.37-.83,1.49-.83-.29-2.05-.08l1-1.29s0,0,0,0l-1.21.2A2,2,0,0,1,377.81,84.77Zm-4.1,1.61c-.5.17-1-.13-1.33-.11a1.25,1.25,0,0,0-.13-1.62l-.69.16c-.14.33-.34.55-1,.23l1-.23c.12-.28.19-.64.48-.8C372.91,83.82,374.47,85.86,373.71,86.38Zm-2-4.62-.92-.62L372.46,80C372.57,81.08,370.73,80.33,371.71,81.76Zm-.37-6.61c.21-.65,1.16-.52,1.37-.36L372,76.42C371.34,76,370.68,75.49,371.34,75.15Zm-1-2.87.52,1.44-1-1.26Zm-.09,17.63c.1-.41.56-.38.89-.43a.39.39,0,0,1,.36-.26c0,.18-.16.23-.36.26C370.89,89.9,371,90.61,370.2,89.91ZM371.46,96h0c-.12,0-.09,0,0,0l1.69-.87C373.73,96.3,371.89,96.08,371.46,96Zm2.18-5.1-.83-3.86-.36,0c1.38-.87,1.44,1.72,2.45,1.36-.5.18-.53.67-.33,1.31l1-.37-.35,1.8.36,0-.66.84c-.33-.47-.07-.8-.27-1.45C374.5,90.72,373.67,90.43,373.64,90.92Zm.85,5.32c.12-.66-1.22-1.26-.25-1.62C375,95.08,374.49,95.75,374.49,96.24Zm.95-1.53c0,.16.12.32.5.49-.43-.14-.55-.31-.5-.49,0-.43.9-.88.59-1.46-.25,0-.54-.36-.89-.48l-.54,0a.62.62,0,0,1,.54,0l2.15-.21C377.42,93.41,375.61,94.15,375.44,94.71Zm1.64-6.35c1.2.28,1.46-1.84,2.45-.41-1.25.69,1.4,2.69-.86,2,.56.62,2.22,1.2,2.29.23,1.19,2.06-2.25,1.06-1.09,3.6,1.42.43.93-1.17,2.48-.9.51,1.59-1.43-.43-1,.85L382.48,95l.24-.34-1,1.82c0-1.94-2.28-2.18-3-3.45l1.06-1.33C377.26,91.27,379.47,88.92,377.08,88.36Zm3.11,10.18L380,99.82l-.22-.14Zm-1.34,7.76c.48-1.65,2.78,1,3.38-.8l1,2.08C381.87,107.47,379.45,108.38,378.85,106.3Zm5.93,4.62-1.25,1.36a2.94,2.94,0,0,1-.34-1.61C383.61,111.63,384.53,110.77,384.78,110.92ZM383.34,115l-2.7,1.24a22.38,22.38,0,0,1,4.15-3.09Zm.94-32.72c-.18.28-.17.86-.54,1.11.24-.63,0-.88-.37-1,.82,1.33-1.18,1.73-1.92,2.23-.57,1.15,1,.93.77,1.26l-2,.24c.3-.82,1.09-1.82,1-2.14,2,.55,1-1,1.95-1.62-.93-.13-2.53.27-2.58-.63,1.76.53.84-1.14,1.29-.87.67.21,1.38,1.09,2.37,1.4.14-.2.38-.25.94.1A2.24,2.24,0,0,1,384.28,82.28Zm2.44,3.3-.3.82-.67-1Zm-.41,19.5,1.76.53-1.3.3Zm.87,17.33,1.07-.72c.66.13.23.7,1.1.4C389.59,122.8,387.44,123.4,387.18,122.41Zm.49,1.41c2.1-2,1.14,1.25,3.05.23C389.25,125.06,388.55,124.08,387.67,123.82Zm5-1.35-2,.17,1.07-.72L390,121.1c1.09.12,1.72-.59,1.47-1.29l-1.93.45c.19-.42,2.56-1.17,3.43-1.18l-1.34-.83c.62-.71,1.3,0,2.17,0l-1.06.43a1.93,1.93,0,0,0,2,.4C393.6,119.77,391.26,121.08,392.63,122.47Zm-1.58-12.54a2.51,2.51,0,0,1,.62,0c.38,0,.76-.15.89-.41.17.5-.35.44-.89.41A4.72,4.72,0,0,1,391.05,109.93Zm3.36,7.9c-.55.17-1.1.78-1.26-.44l.13.33a3.68,3.68,0,0,1,1.13.11.57.57,0,0,1,.73.29A2.59,2.59,0,0,0,394.41,117.83Zm.65-10.6a1.54,1.54,0,0,0-1.08-.16,1.52,1.52,0,0,1-.61,1,1.88,1.88,0,0,1-.24-.18c-.06.12-.1.22-.12.25-1.58-.74-2.54.6-3.87-1,.19-.54.72-.81,1.16-1.09l-2,.24c.76-1,1.72-.94,2.64-1.15v0c-2.3-.72-.36-2.9-3-4.57l1.16-.79a5.33,5.33,0,0,1-1,0c-1.48,1-.37,1.69-.77,2.55l1.28-.59c-.61,1.28-2.59.61-2.8.76L387,99.42c.69,0,1.65.06,2.61,0l.42-.29c-1.9-1.72-.94-2.29,0-2.93l0-.69a1.06,1.06,0,0,1,.54.28c.6-.5.93-1.15.05-2.35l-1.13.53L391,92.19l.08.8c1.06-1.33,2.28.24,2.58,1.19l-1.46.06c.23.64,1.08,2.39,1.69,1.07.48,1.27-1.82,2-2.31,2.68a1.43,1.43,0,0,0,1.38.29l.06-.08,0,.06a1.48,1.48,0,0,1,.66-.19c-.18.06-.41.14-.67.2l-.21.53c.09.67,1,1.66,1,2.33.82,0,1.4.26,1.13,1.27a3.27,3.27,0,0,0-1.16.77c.26.68.56,1.32,1.46,1.47C393.38,104.71,396,106.38,395.06,107.23Zm2.38-6.28-.46-.84.88.26Zm1.93-.74c.23.42.89.26,1.31.26l-2.57.89C398.54,101.07,399.39,100.77,399.37,100.21Zm2.47,7.58c.81,0,.93-.35,1-.67a.45.45,0,0,1,.24-.48c-.16.1-.19.29-.24.48.1.48.9,1,.76,1.77l-1.94.17c.45.56,1.74,0,1.36,1.39-2.14.88-2.91-2.07-4.57-.07C399,108.25,403.23,110,401.84,107.79Zm-3.32,4.28c.64-.43.37-1.69,1.7-1.16l-1.47,1.3Zm1.35,12.4,1-1,.49,1.4Zm.62-12.29c1.67-1.44.86,0,3.45-.62a1.28,1.28,0,0,0-.58,1.85C401.85,113.85,401.35,112.17,400.49,112.18Zm7.75,21c-.4.85-1.72.31-1.72.31Zm-1.6,9.2.1-3c.45.27.9.82,1.55.67C406.34,140.3,407.05,141.85,406.64,142.42Zm1.11,11.69.83-.58.27,1.27Zm27.12,12.94c1.25-.4,2.56,1.18,1.94,1.71l-2.1-.72C434.9,167.71,435.34,167.52,434.87,167.05Zm-10.2-33.37-.4.67-.5-1-.23-.09-.05-.48.28.57Zm-12-7.25.11.33c-.12-.07-.13-.18-.11-.33l-.62-1.92C413.35,125.09,412.77,125.94,412.68,126.43Zm-3.19-.14.65-.44,0,1.13Zm.2-1.34.77-1.83,1.14.44Zm.65,26.28-.28.5,1.63.91-2.17-1.2Zm.81,3.74-.46-1.14.64.14.09-.83C412.85,153.73,411.41,154.46,411.15,155Zm.84-7.46c-1.9-.21.44,1.32-1.83,1.76.42-.29,1.07-.44.84-.86a1.37,1.37,0,0,0-1.74.65h0s0,0,0-.06c-.68-.69,1.69-1.43.15-1.83l2.56.34.28,0Zm.72-11.26-2-.95c.65-.15,1.06-.73,1.72-.59C411.6,135.85,414,135.1,412.71,136.25Zm2-.62c-.15.82.83.93,1.71,1.23l-2.74.74a.65.65,0,0,1-.18.05l.18-.05C414.3,137.25,412.74,135.12,414.71,135.63Zm.29,3.08.66,1.94-.54-.3Zm2,5.15c-1.95-.89.1-.17-1.37-1.9l1.5.42-.65.52c.35.64,1.72.08,2.32.86C418.7,143.93,417.7,143.82,417,143.86Zm7.59,55.42c-.4.85-.84,1-2.47.79l1.54,3.4c-.95-.94-1.45-1.42-2.59-1.18a8.53,8.53,0,0,0-2.25-4.85c.95-.55,2.4-.63,3-1.82a27.07,27.07,0,0,1,5.69,3.5l.1,2C425.77,201.2,425.82,200.37,424.58,199.28Zm-2.88-5-.93,1.21c-.67-.78-1.41-1.41-.73-2.11C419.47,194.59,421.07,194.18,421.7,194.3Zm1.59-15.44a1.07,1.07,0,0,1,.09.19l.58,1.26-2.14.11c.47-.33,1.84-.56,1.56-1.37Zm0,14.37c0,.66,2,3-.19,1.83C423.89,194.85,423,193.74,423.28,193.23Zm2.52-8.07a10.46,10.46,0,0,0,.87,1.74,1.47,1.47,0,0,1,.21.35l-.21-.35C426.1,186.16,424.8,185.36,425.8,185.16ZM429,161l1.62.9c.18-.34.62-.53.18-1,0,0-.35,0-.46.18l-1.16-1.74-2.62.3c1-.55,0-3.28-1.7-3.36a1.28,1.28,0,0,0-1,.54c-1.24-2.89-4.28-5.2-4.32-8.14,0-.66.75-.69,1.29-1-.2,2.76,4.94,4.61,6,7.44-.09-.5,1.36-.49.77-1.22l-1-.12c-.27-.8-2.16-3.17.45-2.15l.36,2c2-.43-1.88-3.67.59-3.64,1.22.27,2.11,3.17,4,4.22-1.26-.26-2.25.94-1.71,1.89a1.08,1.08,0,0,0,.75-.08c0-.1.16-.16.42-.14a1.23,1.23,0,0,0-.42.14c-.18.43,1.06,1.61-.83.91,1.79,2.53,1.25,3.55,1.26,5.52a2.28,2.28,0,0,0,1.44-.65,7.6,7.6,0,0,1,.35-.76,1,1,0,0,1-.35.76,2.8,2.8,0,0,1-1.27,1.62C429.7,162.89,430.88,162,429,161Zm2,19.31,1.71.08c1.42,1.41.24,1,.56,2.44Zm1.47,2.73-.33.68-1-.77Zm1.29,4.55-2-3,.83.45c.14-1,1.36-2,3.13-.66C440.91,188.65,432.54,185,433.75,187.54Zm2.05,17.58c.27.15.19.32.48.47l.48-1c.4.64,1.63,1.73.91,1.77l-.2-.31-1.68.58C436.39,206.08,434.36,205.19,435.8,205.12Zm.16,21c.4.64,1.71.07,1.87,1.22C437.27,227.07,435.47,227.16,436,226.15Zm.26-18.23,2.28.37.62,1.61A5.49,5.49,0,0,1,436.22,207.92Zm-8.57,55.52v-1.32l.83,1.11Zm1-10c-.36-.37-.33-.66-.58-.92a.86.86,0,0,1-.26-.19,1,1,0,0,1,.26.19c.38.22.78.12,1.29.22Zm-45.44,29.12c.19.12.39.43.7.35l.18-.08a.71.71,0,0,1-.18.08l-1.1.5Zm-8.25,157.68-.24-.14.93-1.34Zm.91-6.07-1.09-1.59,1.13.44Zm29.71,28.53.86-.19.21.65Zm5.45-21.8-2-.24c1.41-.56.72-1.67-.34-2.78l-.21.34c-1.89-2.54-.77-2.1-2.41-4.49l1.81-.08c.74,1.61,3.07,3.48,3.21,5.44C409,438.55,412.05,440.39,411,440.93Zm-20.62-83.2,1.36.09a6.34,6.34,0,0,1-2.18-3.24l-.17.09,16.06-.62-.3,0,0-.34-.75-1-.27.33-.06-.64a1.44,1.44,0,0,0-.69-.79l-.22-.07a1.14,1.14,0,0,1,.22.07c.44.13.59.08.61-.05v-.1c-.11-.44-.93-1.34.19-1.29v.51c.79-.38-.57.63.65.73,1.15-.52-.11-3.2.58-4.82l-16.12.79c.29-1.13,2.3-3.93.89-6.29-.36,0-.51.66-.53,1.14-.86.2,14.54-2,13.49-2.94-.29-1.44,2.1-.88,2.2-2.81l-1.93-.25c.66-1.32-15.37-1-13.78-1.23-1.26-1.56,15.14-1.88,15.42-2.7.58.62-16.08,1.27-15.09.92-.2-.6,16.15-2,15-1.92l-.27,0a1.57,1.57,0,0,1,.27,0c.65-.17-15.67-.65-15.63-1.21-.45-.13,15.48.1,15.58-.65.13.55-15.92.4-15.57.37,0-1-.37-2.16.69-1.92.23-.82,15.88-.63,15-.91.6-.35.48-.67.47-1.16l-15,.91c1.44-1-1-.6-.27-2.09,2.55.87,14.46-2.59,16.06-1.36a4.18,4.18,0,0,1,.09,2c.93.15,1.81.32,2,1.79,1.18,1.74.27,2.78-.71,3.59a6.18,6.18,0,0,0,1,.29c1.41.92.17,1.61,0,2.26l1.09,0,0,1.77c-.39.5-1.72-1.87-2.58-1.68-.69-.93-13.78,5.47-15.5,5.86,2.31,2.49,15.43,1.56,17.46,4.05l-1.6.22c-.2.64-.6,1.93.36,2.07.5-.18.2-.65.26-1.13l.45.3c.37,2.87-3.8.29-3.8,2.38h.36l-13.35,5.24c2.17,1.62,16.38-1.3,15.75,0,.4.64-.55,3.35-1.23,4.05C405.42,354.62,391.56,359.66,390.38,357.73Zm-7.13,18-.05-1.32,21.46-3.68Zm20.9,33.08-.73.71-.43-1.14Zm-1.5-84.88c-.6.83.76,1.42,1.59,1.22l.39,1.44-1.46-.42c.5,1.27,1.63,2.68,1.52,3.82-3.38.29-1.14-2.39-3.45-4.07l1.8-.07C403,325.37,401.93,324,402.65,323.94Zm1.65,32.61a2,2,0,0,1-1.19-1.92A2.2,2.2,0,0,1,404.3,356.55Zm-1.25-11.38.29-.33.92-.67Zm-13.16-22c-.47-.83.09-.62.56-.67.05-.13.16-.21.39-.18a.52.52,0,0,1-.39.18C390.28,322.9,390.73,323.84,389.89,323.14Zm0,.48,15.18.38.23-.82C405.55,323.33,389.41,323.8,389.89,323.62ZM408,430.23c-.9.86-.69.52-2.06-.08Zm-2-25.46.8.45-.19,1ZM408,355l0,0,0,0c-.14.35,2.33,2.3.5,1.92C408.05,356.48,407.48,355.56,408,355Zm3.13,51.31-.21,1-2.22-1Zm-2-22.73,0-2.16C410.94,382.18,410.06,383.88,409.15,383.6ZM408.52,337c-.24-.15-.09-.79-.69-.94l.65-.83C410.51,335.79,408.54,336.51,408.52,337Zm-1.75,94.61.73,1.61c-.4-.48-.88-.29-1.6-.27C406.26,432.93,406.84,432.58,406.77,431.6Zm8.46,7.78c-.07.17-.2.32-.57.24l-.12-.05-.24.07-.12-.26c-.21-.15-.24-.29-.2-.43l-.57-1.24c1.69.37.72.78.57,1.24l.2.43a1.46,1.46,0,0,0,.36.19,1.84,1.84,0,0,0,.69-.19c0-.11.07-.22.11-.28A.29.29,0,0,1,415.23,439.38Zm2.12-63.85c-2.19-.54-.68-1.45-3-2.49,2.72.19-1-2.26.16-3.15a9.36,9.36,0,0,0,2,.88C417.87,372.36,415.13,373.66,417.35,375.53Zm2.23,41.29-1.28.39c-.46-1.62-1.92.26-2-1.39.05.39-1.49-.16-1.94.05l-.07.38c-.11-.21-.06-.33.07-.38l.07-.45c1.31.76.36-3,2.12-2.41l.74,1.11c-.62-.13-1.2-.93-1.66-.74C417.2,414.29,416.59,417.13,419.58,416.82Zm-1.08-1.76c1.09-.06.95.77.4,1.14Zm-3.81-2.46L414,412c.46-.18,1.21-.88,1.51.43l-1.05-.61C414.1,411.8,414.78,412.43,414.69,412.6ZM414,368.92l-.19-.32,1.63.24Zm4.52,75.58-.12.55a.68.68,0,0,1,.12-.55l.2-.95,1.23.77C420,444.58,418.87,444.05,418.48,444.5ZM417.8,421c-1.18.22-.17,1.5-1.1,1.87.14-.83,1.08-3-1-3.09l2-.42c.7.63,1.09-.05,1.87.41-.47,2,.57,2.61,1.35,4.88C420.45,423.71,417.63,422.53,417.8,421Zm4-69.39c5.85,4.12-18.2-2.93-2.75.74-.2-1.45,2,.09,1.85-1.35a6.11,6.11,0,0,1,.63-3.24c-.57.66-2.14-.41-1.95,1h.37l-.78.51c1.64-1.5-2.57-2.81-1.47-4.93a5.07,5.07,0,0,1,1.64,3.47,2,2,0,0,1,2.61-.56l-.75,4.21C421.26,351.82,421.39,351.65,421.76,351.64Zm-.64,66.89.14-.83c.26.16.82-.21,1,.11Zm3.69,8.58c-1-1.77-2.92-5.15-1.31-6.05C424.71,423.15,425.41,426.26,424.81,427.11Zm4.19,10a2.58,2.58,0,0,1,.24-.25,1.9,1.9,0,0,0-.25-.53l-.64.15,0-1.15c.13.28.41.66.62,1l.19-.05c.22.27.16.44.06.58S429.21,437.14,429,437.15Zm-1.28-71.37c-.65-1.58,2.55-1.2,1.65-2.13C431,365.7,427.44,364.19,427.72,365.78Zm1.78-2.07c-.67-.79-.82-1.94-.54-1.8C429.07,362.41,430.74,363.31,429.5,363.71Zm3.42-58.09a4.48,4.48,0,0,1-.41-1,2.2,2.2,0,0,1,.41,1,3.55,3.55,0,0,0,1.94,1.39c-.07.65-1,1-.72,1.66a1.13,1.13,0,0,0,1.14-.47l0-.23a.24.24,0,0,1,0,.23l-.12,1.09,1.23.26c.8.95.69,1.12-.51,1.34l-1-1.76c-1.19.22.65,2.26-.83,2.33-1-.13-.64-1.12-.18-1.3C432.5,310.08,433.27,307.37,432.92,305.62Zm1.67,12.68-.45-3.9c.64,1.6,2.94,1.82,3.21,3-.6.35-1-1.11-1.34-.11,2.1,2-.39,4.59,1.59,6.79l-2.65.27c.67-2-.94-4.2-1-6.16l-.61.5a1.06,1.06,0,0,1-.23.19l.23-.19C433.72,318.27,433.76,317.77,434.59,318.3ZM441.35,338l-.34.11c-.11.15-.38.26-.89.29l.89-.29c.44-.61-1.61-2-1.52-2.82.37,0,.53-.36,1.09-.06C439.46,336.15,440.84,336.89,441.35,338Zm-.7,8.15-.49,1c1.91,1.88.87,2.6,3.54,3.62-1.84,2.42,5.36,7.84,1.11,9.4,1.1-1.56-.81-2-.2-4-.92-.28-1.4.74-1.24.4-1.76-2.9-3.85-6.59-2.77-8.14l-2-1.06c.87-.38-.48-2,1-1.38l-.68-.79Zm2-7.89.56.3.48-1c.75.62-.13,1-.37,1.51l1.64.24c-1.09.06-1.25,1.9-3.08,1.33l-.24-1,1.91.39Zm.44-42.49.49-.85.86-.86ZM449.82,346c-.42.48-1.15,0-2-.35.06.74-.49,1-.7,1.93.31,1.08.28,2.21,1.36,2.8.69-.7,1.67.91,2.51,1.35-4.15-.1,1.7,1.57-2.33,2l-1.85-4.21c-2.6.3-.43-2.8-3.3-2.64.72-1.53,1.71.07,3.23-.18l.09.17a3,3,0,0,1-.14-1.39,3.11,3.11,0,0,1-1.18.14,2.09,2.09,0,0,1,1.2-.22A.75.75,0,0,1,447,345c-.1-.93-2.56-2.59-1.09-2.55.83.44,3.43,1.64,3.82,2.27-1.11-.6-1.43.09-1.68.59Zm1.3-8.17a27.41,27.41,0,0,1,.21,3.25l-.56-1.44-.28.33C450.72,339.33,449.53,338.08,451.12,337.85Zm-4.8,23.63-.67-.8c.44-.19.61-.53,1.16-.23C448.91,362.66,445.05,359.72,446.32,361.48Zm-3.27-17.42-.05-.88a.9.9,0,0,1,0-.44l0,.44c.24.76,1.55.87,2,1.28Zm4.34-6.88c-.7-.46-.47,2.45-1.87,1-.52-1.6-1.44-5.48-.48-5.35,1.28,1.09,2,.57,2.57,2.18C445.81,334.63,447.91,336.51,447.39,337.18Zm-1.84-5,.86-.19.21.65Zm-1-2.4c.26-.34.44-1.48,1.42-1.85C445.94,328.92,446.13,330.05,444.56,329.79Zm-7.57,11a.77.77,0,0,1,0,.66.8.8,0,0,1,0-.66c-.25-.57-1.22-.9-1.58-1.25,1.52-.25,1.87-.27,2.08-1.44.92.28,1.59,1.07,1.75.74C439.8,340.71,437.47,340,437,340.76Zm.22,18.56c.28.14.79-.22,1.28.25l-1.42.74C437.52,360.13,437,359.65,437.21,359.32Zm-.78-16.06.25-.5a1,1,0,0,1,1.63.24ZM433.67,356c-.2-.15-.63-.46-.31-.79.35,0,.61-.66,1-.35ZM435,341l-1-1.6,1.39.75Zm3.12,23.5c-.13-1.77-1.56.53-2-.91l2.41.09c.12-.61-.59-.95-1.4-1.1h-.08v0a6,6,0,0,0-1.3-.09c.83-.51.72-1.16,1-1.81l.35,1.9h.09l2.06-.37C437.82,362.6,439.3,363.68,438.16,364.52Zm2,71.14.15-1.33c.76.47,1.35,1.76,1.61,1.92C441,435.46,440.63,437.13,440.14,435.66Zm1.7-79.32a.6.6,0,0,1-.19-.32c-.51-.07-1.52,0-1.28-.76,1-1.09,1.06.11,1.28.76C441.91,356.05,442,356.12,441.84,356.34Zm1.37,25.91.92.13v1Zm.42,21.25c-1.06-1.28,1.28-1.06,1.63-.41Zm.4-30.77,1.94,1.72-1.62-.24c-2.16-2,0-2.82-.92-5.27.06-.83-1.18-.44-1.29-.93,1-.73,1.57,1.09,2.28,1a3.68,3.68,0,0,0,1.38-2.92.79.79,0,0,1-.14-.55,3.33,3.33,0,0,0-1-1.36c-.07-1.32.8-.21,1.68-.59.73,1.2-.54,1.31-.68,1.95a2.78,2.78,0,0,1,.14.55,2,2,0,0,0,.24.35c.63.13.51-.37.68-.71a9.82,9.82,0,0,1,1.88,4.05C442.85,368,448.19,373.51,444,372.73ZM448.37,392c-.1-.49-.64-.8-.19-1,.36,0,.07-1.5,1.24-1.06C448.81,390.44,449,392.09,448.37,392Zm3.86-7.51c-1.7.59-1.29-1.6-3.11-2.18C449.38,381.09,453.27,383.05,452.23,384.44Zm-.74-39-.8.22.19-.66-.05.49a1.52,1.52,0,0,1,.66-.05l.58-.16A.61.61,0,0,1,451.49,345.46Zm-.94-1.73.42-.51,1.09,0Zm1.41-8.35c-1.08-.09-.92.63-1,1.17,0,.16,0,.29-.13.33a.74.74,0,0,0,.13-.33C450.92,336,450.58,335.05,452,335.38Zm-1-25-2-.24c1.41-.56.72-1.67-.34-2.78l-.21.34c-1.89-2.54-.77-2.1-2.41-4.49l1.81-.08c.74,1.61,3.07,3.48,3.21,5.44C449,308,452.05,309.85,451,310.39Zm-1.82-59.49c1.76.74.88,2.44,0,2.15Zm2,24.89-.21,1-2.22-1Zm-4.31-1.11-.2,1-.6-1.45Zm1.16,25c-.9.87-.69.53-2.06-.07Zm-1.22,1.37.73,1.62c-.4-.48-.88-.29-1.6-.27C446.26,302.39,446.84,302,446.77,301.05Zm-2.11-60.85-.78.87,0-1.32Zm-.51,38.08-.74.71-.42-1.14Zm-3.68,11.23c.1-.17.28-.18.47-.13.66-.15,1.55-.39.69-1.25l-.36,0,.66-.52-1.1-1.11c3.17,1.17,1.67,3.72,1.65,5.52.79.46,2.46,1.21,2.4.71.06.5-1.39.56-1.95.92-.84-.95-1.23-2.08-2.58-2.19l.16.33c-1-.61.8-1.35.94-2.19a3.05,3.05,0,0,0-.51-.24Zm3.74-74.08,0,2.32c-.18-.28-.28-.69-.74-.88l-.22-.06a1.16,1.16,0,0,1,.22.06C445.1,217.35,442.57,215.36,444.21,215.43Zm.09,6.45a2,2,0,0,1-1.19-1.92A2.2,2.2,0,0,1,444.3,221.88Zm-1.49.9-.31.69-.88-1.12ZM441.76,225c-.56-.3-.4.86-1.35-.09l-.07-1.32Zm-5.06,67.31-.28,1.67-.52-.3Zm-1-28.13v.66l-1.81-.56Zm-4.06,5.66c-.54-.3-1-.77-1.51-1.08l1.26-.4ZM431.36,257c-1-.12-1-.78-1.81-1.23C430.54,255.85,431.45,256.14,431.36,257Zm-1.63,38.8c.59,1.94,3,.84,3,2,.64-1,1-1,.84-2.5.41.47,2.78.69,2.37,1.86.37,0,.58-.36,1.06-.54l-.69,2.16-.5-.3c-.9.86.84,1.44,1,2.25-1.06-1.1-2.43-1.69-2.44-3.34a7.78,7.78,0,0,0-1.55,2.6l.25,0c1,2.08-.6,1.18,0,2.79l1.28.26c-1.7.58,3,2.3,0,2-.27-1.3-4.31-4-2.28-4.8l-2.59-1.73C430.38,297.54,429.15,296.78,429.73,295.77Zm.65,34.58-.31,1.3-.7-.45Zm-.08,24.35-.82-1.94c1.29.26,2.27,1.87,2,1.71-.65,1.37-2.82-.67-1.73,1.43,1,.11,1.54,1.91,2.75.84.54,1.81-2.2,1-3.65,1-.7-1.45-2.21-1.2-2.28-2.53,1.47.58,1.2.44.87,1.12,1.91.39,1.17-1.72-.06-2.82l-.72,0c.78-.87-1.66-2.4-1.56-4.06l-.9,1.87-.11-.49,1.12-2.38C430.38,349.4,425.18,353,430.3,354.7Zm-1.88-48.06,0,1.14-1.09-1.59Zm-.26,5.73-.69,1.49-.24-.14Zm-3.25,23.7c.25-.33.75-.52.41-1-.63.34-2.66-.23-1.5,1l-1.05-.93c2.78.05.87-3.44,2.72-4,.47.3,1.05.92,1.54.74C425.42,332.65,426.49,335.84,424.91,336.07Zm-.55-30.24c2.06,1.72,3.62,3.11,1.46,4.85l-1.31-1.25,1.27.76c-.55-.8.07-2.29-1.86-2.05A1.26,1.26,0,0,0,424.36,305.83Zm-2.93,2.92c.76.46,1.08,1.58,2,1.21.46,1-1,2-1.49,1.21-.17-.81-.86-.29-1.62-.75C421.39,309.89,421.72,309.39,421.43,308.75Zm-.23,31.17c.13-.47.94-.88,1-1.24q-.18-.18-.33-.36l-.06,0-.95-.13.51-.66a2.66,2.66,0,0,0,.5.82c.25.11.34.23.33.36.76.77,1.68,1.36,1.32,1.48l-.55-.62-.52,1.47c-1.31.69-2.21-1.53-2.35-2.34C421.49,339.1,420.42,339.15,421.2,339.92Zm-1,2c.39.79-.9,1.49-1.38,2.47-1.43-1.24-2.82-3.77-.58-4.32.23.15.76.76,1,.44l-.4,1.3C419.8,341.59,419.62,343.05,420.24,341.89Zm-1.11-20.67.49.31-.94,1.32Zm1.36,6.09c.49.48.83,1.94,1.43,2.91C420.57,328.63,420.93,328.62,420.49,327.31Zm.51-10.42-.69-1.45C421.94,315.69,421.06,316.07,421,316.89Zm-2.15,8.56c-.51,1.16.75,2.24.47,3.06l-1.76-.9c1.76-2.17-2.82-5.88-.63-7.92l0,1,1.69-.89c-.61.35-.11,1.63-1.56,1.2,1.36,1.57,1.63,3.18,3.1,4.1Zm.48-15.89-1.85-1.87c1.27.27,1-.54,1-1.2l1.46.58Zm-1-4.21.48,0a.72.72,0,0,0,.39-1.06l.48,1.11-.87-.05A.62.62,0,0,1,418.33,305.35Zm-.63-7c-1.35-.1-.62.52,0,1.31l-1.18-.44c.87,1,1.2,2.19,2,2.64a1,1,0,0,1,.79.18,1.51,1.51,0,0,1-.79-.18c-.54.05-1.1.22-1.49-.85a14.28,14.28,0,0,0-2.08-4.16C416,296.93,416.07,298.07,417.7,298.32Zm-3.23,33.29a7.35,7.35,0,0,1-.71-3.2C415.28,329.64,414.25,331,414.47,331.61ZM414,317.87l-.24.33-1.35-1.08Zm-3.44-20.19c1.36.21.86,1.33,1.12,1.64l.22.08a.23.23,0,0,1-.22-.08l-1.77-.64Zm-1,18.34c-1.93,1.1,1.94,1.06.84,2.6-3.07-.17.11-1.66-2.55-2.67C407.87,315.12,408.71,316.23,409.52,316Zm-1.3,4.08a1,1,0,0,1-.52-.35,2.08,2.08,0,0,1,.52.35,2.33,2.33,0,0,0,1.67-.05l.33-.44a.53.53,0,0,1-.33.44l-.69.94,1.3.92-2.38,1.28c-.61-1.62-2.43-2.17-1.93-3.19l1.58,1.07C407,320.29,408.59,320.51,408.22,320.1Zm-1.85-8.4c-1.93,1,1.92,4.15.37,5.24l.21-.08c.51,1.77-1.21-.26-2.17.58,1-1-12.9,1.76-13.54.6a2.49,2.49,0,0,1-.77,0l-.06-.35a1,1,0,0,1-.12.42l14.91-.75c0-2.05-15.75-1.29-15-.86l-.09-.58.51.76c.42.1.81-.07,1.05-1.06a2.47,2.47,0,0,0-1.12-.44c.65-1,.61.13,1.41-.55l12.7-3C405.41,311.58,405.74,311.08,406.37,311.7Zm-20,1.21c1,.12.72-1.66.29-2.61l1.4,1.07c1.28-.86-1.73-2.2.77-1.17-1.51.23,1.74,1.77-.26,1.81a1.9,1.9,0,0,1,.1.28c.51.42.94.58,1.43.29-.44-.95,1.67-2-.79-2.56.72,0,2.68.21,2.09.55.91.78,13.22-4.32,13.83-4.19l.29,3.89c-.76-.45-14.15,3.08-14.7,2.29l-2.57,1.25a1.76,1.76,0,0,0,.42-1.52c-.1-.09-.2-.17-.31-.28h.21a3.19,3.19,0,0,0-.25-.48c-2.24-.88,0,2.11-1.81,1.7l-1.05-1.09C386.69,311.93,386.11,312.27,386.4,312.91Zm14,4.82c1.22.75,1,2.54,2.82,2.46.35-.5.7-1,1.57-.23-2.4.92,0,0-2.65.77C402.33,319.42,398.45,318.94,400.37,317.73Zm2.12,25.54-.95-.62c-1.08.53,1,2.7-.82,2.77.06-.49-.38-.79-.7-1.26-.65-.33-.93-.28-1.1-.12l.2.53-.47-.18c-.17.23-.4.42-1.09.18-.67-.45-.38-.59,0-.71a3.87,3.87,0,0,1-1.38-1.28l2.28.37.18.49C399.77,342.84,400.26,341.15,402.49,343.27Zm.32,14.18-.31.69-.88-1.12Zm-7-17.67c.28.16.2.33.48.48l.48-1c.4.64,1.63,1.73.91,1.77l-.19-.32-1.69.59C396.39,340.75,394.36,339.86,395.8,339.78Zm.16,21c.4.64,1.71.06,1.87,1.22C397.27,361.74,395.47,361.83,396,360.82Zm1.1-1.71c-1.82-1.05-.32-2.06-.64-3.33C398.62,356.51,398.47,358.43,397.06,359.11ZM381.26,289l-.52-.31-.29-1.28ZM378.41,295l-.27-2.12a7.49,7.49,0,0,1,1.84,1.79c-.38-1.06-.6-2.19,1.59-3.14l.49,1.39.42-.28c0,.9-.18,2.36.28,2.81l.48.13a.52.52,0,0,1-.48-.13l-1.93-.53a1.19,1.19,0,0,0-.1.32,1.38,1.38,0,0,1,.29.12,1,1,0,0,1-.29-.08c-.13.83.35,1.94,0,3.17-.22-.13-.68-.69-1.33-.54l1.06-.72c-3.66.76.54,2.53-2.92,3.14.58-1.84.63-.71,1-2.69,2.13-.54,2-1.42,1.65-2.41C379.65,295.33,379.23,295.74,378.41,295Zm-.05,6.73c1.25-.39,2.56,1.19,1.95,1.72l-2.11-.72C378.39,302.38,378.83,302.18,378.36,301.71ZM395.67,319c5.24,4.35-3.13.66-1.92,3.24l-2-3,.83.45C392.68,318.64,393.9,317.59,395.67,319Zm-4.56-1.4,1.35.08-.33.69ZM392.7,315c1.42,1.41.24,1,.57,2.44L391,314.93ZM366.08,379.3c.43-.19,1.44,2.74,2.48,1.36.49,1.14.34,2.14,1.63,3.06.53-.36,2.16-.11,1.31-1.23-1-.77-1.95-1.71-1.51-1.9.21,1,.74.62,1.66.91-1.59-1.74-1.42-2.08-2.64-3.18.87-1-1.61-2.39-.11-3.3l1.46.58-1.43.08c0,1.49,3.23,4.8,2.93,6.8,1.19.43,11.44.66,11.56,1.8-1.37-.74-11-.84-11.88-.46.68,1.45,10.19,1.05,11.27,1-1.17.23,0,1.5-1.28,1.89.55.31,1.29.93,1,.12.86,2.43,14.52,1.22,12.82,2.46l-13.2,2.36s-.36,0-.45.18c-.4-2.62-1.65-4.21-3-7.12-.88.38-.66,1.36-2.39,1.28-1.3-1.57-7.45-3-8.57-4.28-.63-.13-1.16.23-.78.87C366.17,382,363.92,379.41,366.08,379.3Zm30.62,43.55-.28,1.67-.52-.3Zm-1-27.47-1.81-.56,1.8-.1Zm-4.32,3.52.25,1.48c-.54-.3-1-.77-1.51-1.08Zm-14.2-8.49c1,.11,1.9.4,1.81,1.22C378,391.52,378,390.86,377.17,390.41Zm-1.51-3.19a1.43,1.43,0,0,1-.26-.19,1,1,0,0,1,.26.19c.38.22.78.11,1.29.22l-.71.7C375.88,387.76,375.91,387.48,375.66,387.22Zm12.81,6.55-.82.21v-1.32Zm-13.68,14.06c.45-.18.29-1.16,1-1.2-1,.55,1.06,1.27,1.14,1.76C376.4,408.75,375.52,407.81,374.79,407.83Zm2.74,50.23-.7-.45,1-.85Zm15-26.81a1.72,1.72,0,0,0,.07-.21l-15.68-6.22c.9-.87-.33-1.63.25-2.63.59,1.94,15.53,5,15.52,6.12.64-1,1-1,.84-2.51.41.47,2.78.69,2.37,1.86.37,0,.58-.36,1.06-.54l-.69,2.16-.5-.3c-.9.86.84,1.44,1,2.25-1.06-1.1-2.43-1.69-2.44-3.33a8.32,8.32,0,0,0-1.75,3.14l.3.2a1.08,1.08,0,0,0-.37,0c-.08.26-.15.53-.22.78a.38.38,0,0,1-.05.22c0-.07,0-.14.05-.22C392.35,431.74,392.21,431.35,392.55,431.25Zm.37,4.91a4.48,4.48,0,0,1-.41-1,2.2,2.2,0,0,1,.41,1,3.54,3.54,0,0,0,1.94,1.39c-.07.65-1,1-.72,1.66a1.11,1.11,0,0,0,1.14-.47l0-.23a.28.28,0,0,1,0,.23l-.12,1.09,1.24.26c.79,1,.68,1.12-.52,1.34l-1-1.76c-1.19.22.65,2.26-.83,2.33-.95-.13-.64-1.12-.18-1.3C392.5,440.63,393.27,437.91,392.92,436.16Zm2,18.69c.67-2-.94-4.2-1-6.16l-.61.5a1.06,1.06,0,0,1-.23.19l.23-.19c.35-.38.39-.87,1.22-.35l-.45-3.9c.64,1.6,2.94,1.82,3.21,3-.6.36-1-1.1-1.34-.11,2.11,2-.38,4.59,1.59,6.79Zm6.84-94a4.34,4.34,0,0,0-.59-1c-.14.11-.35.14-.79-.31l0-.69c-1-1.16-2.09-2.4-1.83-3.5.89.61,1,.92,2,.58-.44-.68-.79-2.08-1.19-2.7a1.6,1.6,0,0,0-.51-.28c.18-.1.35,0,.51.28,1.13.85,1.91,3.08,2.28,2.66a3.69,3.69,0,0,0-.19,3.41l.33.33a.3.3,0,0,0-.21-.05,4.16,4.16,0,0,0,.55.91l.67-.34C402.63,360.36,402.37,361,401.79,360.86Zm1,11.42c.88-.19,1.35-.68,2.19-.06l-1.7,1.31C403.37,373,403.53,372.57,402.75,372.28ZM400.35,422l.17.34c-1-.62.79-1.36.93-2.2a3.05,3.05,0,0,0-.51-.24l-.47.13c.1-.17.28-.18.47-.13.66-.15,1.55-.39.69-1.25l-.36,0,.66-.52-1.1-1.11c3.18,1.17,1.67,3.72,1.65,5.52.79.46,2.46,1.21,2.4.71.06.5-1.39.56-1.95.92C402.09,423.26,401.7,422.13,400.35,422Zm2.73,4.33.49-.86.86-.86Zm2.9,32.13c0,1,.15,2.12-1.42,1.85C404.82,460,405,458.85,406,458.48Z"/></svg>